<svg width="565" height="467" xmlns="http://www.w3.org/2000/svg" xmlns:xlink="http://www.w3.org/1999/xlink" xml:space="preserve" overflow="hidden"><defs><clipPath id="clip0"><rect x="357" y="215" width="565" height="467"/></clipPath></defs><g clip-path="url(#clip0)" transform="translate(-357 -215)"><path d="M30.4903 638.872C27.5865 641.149 24.1632 642.255 20.7798 642.255 15.9711 642.255 11.2158 640.044 8.05882 635.821 2.69071 628.615 4.02275 618.318 11.0426 612.79 13.9464 610.513 17.3698 609.42 20.7531 609.42 25.5751 609.42 30.3172 611.631 33.4741 615.854 38.8422 623.047 37.5102 633.357 30.4903 638.872ZM35.3656 614.349C31.7424 609.487 26.2811 606.956 20.7531 606.956 16.8636 606.956 12.9208 608.221 9.57735 610.846 1.53184 617.186 0 629.028 6.18065 637.313 9.79047 642.175 15.2651 644.706 20.7798 644.706 24.6826 644.706 28.6255 643.454 31.9556 640.816 40.0011 634.489 41.5329 622.634 35.3656 614.349Z" fill="#008BFD" fill-rule="evenodd" transform="matrix(1.00029 0 0 1 419.819 -383.167)"/><path d="M4.82197 635.355C3.75634 634.276 2.90384 633.237 2.21118 632.225 0.679339 635.435 0.133204 638.752 0 641.389 0.146524 641.602 0.146524 641.762 0.306368 641.975 1.07895 642.988 2.03802 643.947 2.97044 644.706 2.83724 642.548 3.02372 639.018 4.82197 635.355Z" fill="#008BFD" fill-rule="evenodd" transform="matrix(1.00029 0 0 1 427.46 -389.257)"/><path d="M6.58026 634.729C5.12834 635.755 3.64978 637.06 2.14458 638.698 1.31872 639.591 0.612737 640.497 0 641.429 0.639378 642.481 1.47856 643.574 2.53087 644.706 3.31677 643.56 4.28916 642.415 5.46135 641.296 6.93991 639.871 8.32523 638.738 9.63063 637.819 8.565 636.807 7.52601 635.781 6.58026 634.729Z" fill="#008BFD" fill-rule="evenodd" transform="matrix(1.00029 0 0 1 431.264 -401.215)"/><path d="M13.014 641.949C12.3213 641.029 11.5354 640.244 10.7096 639.511 8.23199 639.125 4.39572 639.178 0 641.562 1.01235 642.681 2.01138 643.734 2.98376 644.706 8.84473 641.469 13.014 641.949 13.014 641.949Z" fill="#008BFD" fill-rule="evenodd" transform="matrix(1.00029 0 0 1 440.115 -409.499)"/><path d="M2.79728 644.706C3.25017 643.8 3.78298 642.868 4.3824 641.962 1.86485 637.873 1.98474 634.489 2.25114 632.917 1.62509 633.597 1.03899 634.289 0.532815 635.049 0.0266407 637.193 0 640.603 2.79728 644.706Z" fill="#008BFD" fill-rule="evenodd" transform="matrix(1.00029 0 0 1 426.878 -401.752)"/><path d="M4.54225 636.58C3.37005 635.621 2.37103 634.662 1.51852 633.73 0.905785 634.609 0.412931 635.475 0 636.327 0.799222 637.167 1.73165 638.006 2.78396 638.872 9.33758 644.213 15.8512 644.706 19.5143 644.706 19.7541 644.706 20.8997 643.121 21.5657 642.122 19.9273 642.468 12.9208 643.387 4.54225 636.58Z" fill="#008BFD" fill-rule="evenodd" transform="matrix(1.00029 0 0 1 432.276 -390.243)"/><path d="M0 641.576C0.679339 642.588 1.53184 643.627 2.59747 644.706 3.0104 643.853 3.51658 642.988 4.11599 642.108 3.06368 640.976 2.2245 639.884 1.58512 638.832 0.959067 639.737 0.439572 640.67 0 641.576Z" fill="#008BFD" fill-rule="evenodd" transform="matrix(1.00029 0 0 1 429.68 -398.622)"/><path d="M0 632.957C5.98085 638.632 13.054 643.454 14.8522 644.706 15.0387 644.24 15.1586 643.787 15.2918 643.307 13.3603 641.842 8.28527 637.766 2.19786 631.559 1.49188 631.958 0.759261 632.424 0 632.957Z" fill="#008BFD" fill-rule="evenodd" transform="matrix(1.00029 0 0 1 440.894 -396.348)"/><path d="M6.59358 643.267C5.12834 641.695 3.63646 640.004 2.11794 638.206 1.38532 638.432 0.679339 638.738 0 639.085 1.11891 640.963 2.62411 642.854 4.3158 644.706 5.08838 644.146 5.83432 643.667 6.59358 643.267Z" fill="#008BFD" fill-rule="evenodd" transform="matrix(1.00029 0 0 1 433.523 -411.198)"/><path d="M2.49091 639.99C1.74497 640.403 0.759261 641.016 0 641.576 0.959067 642.615 1.93145 643.694 2.99708 644.706 3.75634 644.173 4.78201 643.534 5.48799 643.134 4.50229 642.162 3.50326 641.109 2.49091 639.99Z" fill="#008BFD" fill-rule="evenodd" transform="matrix(1.00029 0 0 1 437.72 -407.973)"/><path d="M2.2245 639.791C1.46524 640.204 0.759261 640.723 0 641.283 0.959067 642.335 2.31774 643.694 3.38337 644.706 4.14263 644.173 4.78201 643.64 5.48799 643.227 4.50229 642.268 3.22353 640.896 2.2245 639.791Z" fill="#008BFD" fill-rule="evenodd" transform="matrix(1.00029 0 0 1 437.719 -407.911)"/><path d="M1.78493 637.939C0.293048 639.111 0 641.336 1.14555 642.868 2.31774 644.426 4.47564 644.706 5.98085 643.534 7.47273 642.362 7.76578 640.137 6.62022 638.592 5.46135 637.06 3.31677 636.74 1.78493 637.939Z" fill="#008BFD" fill-rule="evenodd" transform="matrix(1.00029 0 0 1 446.224 -397.33)"/><path d="M1.65173 638.432C0.266407 639.524 0 641.589 1.05231 643.014 2.13126 644.439 4.12931 644.706 5.52795 643.614 6.91327 642.521 7.17968 640.47 6.11405 639.045 5.04842 637.619 3.05036 637.34 1.65173 638.432Z" fill="#008BFD" fill-rule="evenodd" transform="matrix(1.00029 0 0 1 439.281 -389.022)"/><path d="M2.51755 635.169C0.399611 636.847 0 639.937 1.61176 642.108 3.25017 644.293 6.28721 644.706 8.40515 643.041 10.5231 641.376 10.9227 638.272 9.29762 636.074 7.67253 633.93 4.63549 633.503 2.51755 635.169Z" fill="#008BFD" fill-rule="evenodd" transform="matrix(1.00029 0 0 1 426.422 -396.168)"/><text fill="#008BFD" font-family="Calibri,Calibri_MSFontService,sans-serif" font-weight="400" font-size="10" transform="matrix(1.33242 0 0 1.33204 409.933 279)">Single Page</text><text fill="#008BFD" font-family="Calibri,Calibri_MSFontService,sans-serif" font-weight="400" font-size="10" transform="matrix(1.33242 0 0 1.33204 408.387 295)"> </text><text fill="#008BFD" font-family="Calibri,Calibri_MSFontService,sans-serif" font-weight="400" font-size="10" transform="matrix(1.33242 0 0 1.33204 411.052 295)">Application</text><path d="M30.4903 638.872C27.5865 641.149 24.1632 642.255 20.7798 642.255 15.9711 642.255 11.2158 640.044 8.05882 635.821 2.69071 628.615 4.02275 618.318 11.0426 612.79 13.9464 610.513 17.3698 609.42 20.7531 609.42 25.5751 609.42 30.3172 611.631 33.4741 615.854 38.8422 623.047 37.5102 633.357 30.4903 638.872ZM35.3656 614.349C31.7424 609.487 26.2811 606.956 20.7531 606.956 16.8636 606.956 12.9208 608.221 9.57735 610.846 1.53184 617.186 0 629.028 6.18065 637.313 9.79047 642.175 15.2651 644.706 20.7798 644.706 24.6826 644.706 28.6255 643.454 31.9556 640.816 40.0011 634.489 41.5329 622.634 35.3656 614.349Z" fill="#008BFD" fill-rule="evenodd" transform="matrix(1.00029 0 0 1 419.819 -290.186)"/><path d="M4.82197 635.355C3.75634 634.276 2.90384 633.237 2.21118 632.225 0.679339 635.435 0.133204 638.752 0 641.389 0.146524 641.602 0.146524 641.762 0.306368 641.975 1.07895 642.988 2.03802 643.947 2.97044 644.706 2.83724 642.548 3.02372 639.018 4.82197 635.355Z" fill="#008BFD" fill-rule="evenodd" transform="matrix(1.00029 0 0 1 427.46 -296.276)"/><path d="M6.58026 634.729C5.12834 635.755 3.64978 637.06 2.14458 638.698 1.31872 639.591 0.612737 640.497 0 641.429 0.639378 642.481 1.47856 643.574 2.53087 644.706 3.31677 643.56 4.28916 642.415 5.46135 641.296 6.93991 639.871 8.32523 638.738 9.63063 637.819 8.565 636.807 7.52601 635.781 6.58026 634.729Z" fill="#008BFD" fill-rule="evenodd" transform="matrix(1.00029 0 0 1 431.264 -308.233)"/><path d="M13.014 641.949C12.3213 641.029 11.5354 640.244 10.7096 639.511 8.23199 639.125 4.39572 639.178 0 641.562 1.01235 642.681 2.01138 643.734 2.98376 644.706 8.84473 641.469 13.014 641.949 13.014 641.949Z" fill="#008BFD" fill-rule="evenodd" transform="matrix(1.00029 0 0 1 440.115 -316.517)"/><path d="M2.79728 644.706C3.25017 643.8 3.78298 642.868 4.3824 641.962 1.86485 637.873 1.98474 634.489 2.25114 632.917 1.62509 633.597 1.03899 634.289 0.532815 635.049 0.0266407 637.193 0 640.603 2.79728 644.706Z" fill="#008BFD" fill-rule="evenodd" transform="matrix(1.00029 0 0 1 426.878 -308.77)"/><path d="M4.54225 636.58C3.37005 635.621 2.37103 634.662 1.51852 633.73 0.905785 634.609 0.412931 635.475 0 636.327 0.799222 637.167 1.73165 638.006 2.78396 638.872 9.33758 644.213 15.8512 644.706 19.5143 644.706 19.7541 644.706 20.8997 643.121 21.5657 642.122 19.9273 642.468 12.9208 643.387 4.54225 636.58Z" fill="#008BFD" fill-rule="evenodd" transform="matrix(1.00029 0 0 1 432.276 -297.262)"/><path d="M0 641.576C0.679339 642.588 1.53184 643.627 2.59747 644.706 3.0104 643.853 3.51658 642.988 4.11599 642.108 3.06368 640.976 2.2245 639.884 1.58512 638.832 0.959067 639.737 0.439572 640.67 0 641.576Z" fill="#008BFD" fill-rule="evenodd" transform="matrix(1.00029 0 0 1 429.68 -305.641)"/><path d="M0 632.957C5.98085 638.632 13.054 643.454 14.8522 644.706 15.0387 644.24 15.1586 643.787 15.2918 643.307 13.3603 641.842 8.28527 637.766 2.19786 631.559 1.49188 631.958 0.759261 632.424 0 632.957Z" fill="#008BFD" fill-rule="evenodd" transform="matrix(1.00029 0 0 1 440.894 -303.367)"/><path d="M6.59358 643.267C5.12834 641.695 3.63646 640.004 2.11794 638.206 1.38532 638.432 0.679339 638.738 0 639.085 1.11891 640.963 2.62411 642.854 4.3158 644.706 5.08838 644.146 5.83432 643.667 6.59358 643.267Z" fill="#008BFD" fill-rule="evenodd" transform="matrix(1.00029 0 0 1 433.523 -318.216)"/><path d="M2.49091 639.99C1.74497 640.403 0.759261 641.016 0 641.576 0.959067 642.615 1.93145 643.694 2.99708 644.706 3.75634 644.173 4.78201 643.534 5.48799 643.134 4.50229 642.162 3.50326 641.109 2.49091 639.99Z" fill="#008BFD" fill-rule="evenodd" transform="matrix(1.00029 0 0 1 437.72 -314.991)"/><path d="M2.2245 639.791C1.46524 640.204 0.759261 640.723 0 641.283 0.959067 642.335 2.31774 643.694 3.38337 644.706 4.14263 644.173 4.78201 643.64 5.48799 643.227 4.50229 642.268 3.22353 640.896 2.2245 639.791Z" fill="#008BFD" fill-rule="evenodd" transform="matrix(1.00029 0 0 1 437.719 -314.929)"/><path d="M1.78493 637.939C0.293048 639.111 0 641.336 1.14555 642.868 2.31774 644.426 4.47564 644.706 5.98085 643.534 7.47273 642.362 7.76578 640.137 6.62022 638.592 5.46135 637.06 3.31677 636.74 1.78493 637.939Z" fill="#008BFD" fill-rule="evenodd" transform="matrix(1.00029 0 0 1 446.224 -304.348)"/><path d="M1.65173 638.432C0.266407 639.524 0 641.589 1.05231 643.014 2.13126 644.439 4.12931 644.706 5.52795 643.614 6.91327 642.521 7.17968 640.47 6.11405 639.045 5.04842 637.619 3.05036 637.34 1.65173 638.432Z" fill="#008BFD" fill-rule="evenodd" transform="matrix(1.00029 0 0 1 439.281 -296.041)"/><path d="M2.51755 635.169C0.399611 636.847 0 639.937 1.61176 642.108 3.25017 644.293 6.28721 644.706 8.40515 643.041 10.5231 641.376 10.9227 638.272 9.29762 636.074 7.67253 633.93 4.63549 633.503 2.51755 635.169Z" fill="#008BFD" fill-rule="evenodd" transform="matrix(1.00029 0 0 1 426.422 -303.186)"/><text fill="#008BFD" font-family="Calibri,Calibri_MSFontService,sans-serif" font-weight="400" font-size="10" transform="matrix(1.33242 0 0 1.33204 415.489 372)">Web app</text><path d="M28.7587 610.726 1.45192 610.726C0.652698 610.726 0 611.378 0 612.204L0 634.503C0 635.315 0.652698 635.968 1.45192 635.968L8.48507 635.968C9.04453 637.766 10.7362 638.991 12.7609 638.991 15.1852 638.991 17.2099 636.953 17.2099 634.503 17.2099 632.052 15.1852 630 12.7609 630 10.7362 630 9.04453 631.226 8.48507 633.024L2.90384 633.024 2.90384 617.093 27.2934 617.093 27.2934 633.024 22.6979 633.024C22.0452 628.122 17.7694 624.286 12.7609 624.286 11.0692 624.286 9.36422 624.779 7.9123 625.511L9.2843 628.122C10.2567 627.549 11.5488 627.23 12.681 627.23 16.5572 627.23 19.874 630.493 19.874 634.503 19.874 638.499 16.6371 641.775 12.681 641.775 11.4688 641.775 10.3366 641.442 9.2843 640.87L7.9123 643.48C9.36422 644.306 11.0692 644.706 12.7609 644.706 17.7694 644.706 22.0452 640.87 22.6979 635.968L28.7587 635.968C29.5579 635.968 30.2106 635.315 30.2106 634.503L30.2106 612.204C30.2106 611.458 29.5579 610.726 28.7587 610.726Z" fill="#008BFD" fill-rule="evenodd" transform="matrix(1.00029 0 0 1 735.195 -195.224)"/><text fill="#008BFD" font-family="Calibri,Calibri_MSFontService,sans-serif" font-weight="400" font-size="10" transform="matrix(1.33242 0 0 1.33204 728.972 467)">API App</text><path d="M31.4894 612.737 23.3906 612.737C23.0842 612.737 22.8844 612.937 22.8844 613.336L22.8844 616.24C22.8844 616.547 23.0842 616.746 23.3906 616.746L27.9861 616.746 27.9861 621.249C27.9861 621.555 28.1859 621.755 28.5855 621.755L31.4894 621.755C31.7824 621.755 31.9822 621.555 31.9822 621.249L31.9822 613.23C31.9822 612.937 31.7824 612.737 31.4894 612.737ZM8.59164 640.696 3.99611 640.696 3.99611 636.194C3.99611 635.888 3.79631 635.688 3.39669 635.688L0.506174 635.688C0.199806 635.688 0 635.888 0 636.194L0 644.213C0 644.506 0.199806 644.706 0.506174 644.706L8.59164 644.706C8.89801 644.706 9.09781 644.506 9.09781 644.106L9.09781 641.203C9.09781 640.896 8.89801 640.696 8.59164 640.696ZM26.6807 635.795C26.4809 635.795 26.2811 635.795 26.0813 635.888L22.991 630.48C23.6836 629.774 24.1898 628.868 24.1898 627.776 24.1898 625.764 22.4848 624.059 20.4867 624.059 19.9939 624.059 19.4877 624.166 18.9948 624.366L15.6914 619.744C16.1976 619.251 16.3974 618.545 16.3974 617.745 16.3974 616.04 14.9987 614.642 13.2937 614.642 11.5887 614.642 10.1901 616.04 10.1901 617.745 10.1901 619.451 11.5887 620.849 13.2937 620.849 13.6933 620.849 13.9864 620.756 14.2928 620.649L17.5962 625.365C17.1966 625.871 16.797 626.47 16.6904 627.27L7.09976 628.069C6.70015 627.27 5.90092 626.763 4.9019 626.763 3.50326 626.763 2.39767 627.869 2.39767 629.268 2.39767 630.68 3.50326 631.785 4.9019 631.785 6.10073 631.785 7.193 630.879 7.39281 629.667L16.797 628.868C16.9968 629.467 17.2898 629.974 17.6895 630.48L15.2918 634.383 14.9987 634.383C13.5868 634.383 12.4945 635.488 12.4945 636.887 12.4945 638.299 13.5868 639.391 14.9987 639.391 16.3974 639.391 17.4896 638.299 17.4896 636.887 17.4896 636.194 17.1966 635.581 16.797 635.089L19.0881 631.279C19.4877 631.372 19.8873 631.479 20.3935 631.479 20.7931 631.479 21.0861 631.372 21.4858 631.279L24.5894 636.687C24.0832 637.193 23.6836 637.992 23.6836 638.792 23.6836 640.403 24.989 641.709 26.5875 641.709 28.1859 641.709 29.4913 640.403 29.4913 638.792 29.4913 637.193 28.2791 635.795 26.6807 635.795Z" fill="#007EFD" fill-rule="evenodd" transform="matrix(1.00029 0 0 1 428.373 -6.4593)"/><text fill="#007EFD" font-family="Calibri,Calibri_MSFontService,sans-serif" font-weight="400" font-size="10" transform="matrix(1.33242 0 0 1.33204 411.85 657)">Browserless</text><text fill="#007EFD" font-family="Calibri,Calibri_MSFontService,sans-serif" font-weight="400" font-size="10" transform="matrix(1.33242 0 0 1.33204 434.182 673)">app</text><path d="M24.4429 599.417 24.4429 599.403 1.98474 599.403 1.99806 599.417C0.0266407 599.483 0 599.949 0 602.387L0 641.749C0 644.186 0.0399611 644.639 1.98474 644.706 1.98474 644.706 2.57083 644.706 2.67739 644.706L23.7635 644.706C23.8568 644.706 24.4429 644.706 24.4429 644.706 26.401 644.639 26.4276 644.186 26.4276 641.749L26.4276 602.387C26.4276 599.949 26.401 599.483 24.4429 599.417ZM10.1102 600.948 16.3308 600.948C16.4373 600.948 16.5306 601.068 16.5306 601.188 16.5306 601.308 16.4373 601.428 16.3308 601.428L10.1102 601.428C9.99028 601.428 9.89703 601.308 9.89703 601.188 9.89703 601.068 9.99028 600.948 10.1102 600.948ZM10.27 642.362 8.75148 642.362C8.4984 642.362 8.29859 642.268 8.29859 642.002 8.29859 641.749 8.4984 641.656 8.75148 641.656L10.27 641.656C10.5231 641.656 10.7362 641.749 10.7362 642.002 10.7229 642.268 10.5231 642.362 10.27 642.362ZM14.2528 642.628 12.1881 642.628C11.8418 642.628 11.5621 642.481 11.5621 642.135 11.5621 641.789 11.8418 641.656 12.1881 641.656L14.2528 641.642C14.5991 641.656 14.8789 641.775 14.8789 642.135 14.8789 642.481 14.5991 642.628 14.2528 642.628ZM17.7028 642.362 16.1842 642.362C15.9445 642.362 15.7314 642.255 15.7314 642.002 15.7314 641.749 15.9445 641.642 16.1842 641.642L17.7028 641.642C17.9559 641.642 18.1557 641.749 18.1557 642.002 18.1557 642.255 17.9559 642.362 17.7028 642.362ZM24.5228 637.766C24.5228 639.844 24.3363 640.297 22.4448 640.323L12.2281 640.323 3.98279 640.323C2.10462 640.297 1.90481 639.844 1.90481 637.766L1.90481 605.024C1.90481 602.853 2.11794 602.853 4.22256 602.853L12.2281 602.853 22.2051 602.853C24.323 602.853 24.5361 602.853 24.5361 605.024L24.5228 637.766Z" fill="#008BFD" fill-rule="evenodd" transform="matrix(1.00029 0 0 1 427.373 -189.654)"/><path d="M20.0472 612.217C20.0472 610.126 19.7941 610.113 17.7427 610.113L2.25114 610.113C0.199806 610.113 0 610.126 0 612.217L0 642.242C0 644.333 0.213126 644.706 2.25114 644.706L17.7427 644.706C19.7941 644.706 20.0472 644.333 20.0472 642.228L20.0472 612.217ZM9.43082 634.396 3.07701 630.626 3.07701 623.087 9.43082 626.843 9.43082 634.396ZM3.68974 622.048 10.0302 618.305 16.3974 622.075 10.0702 625.818 3.68974 622.048ZM16.9701 630.626 10.6163 634.396 10.6163 626.897 16.9701 623.14 16.9701 630.626Z" fill="#008BFD" fill-rule="evenodd" transform="matrix(1.00029 0 0 1 430.564 -195.522)"/><text fill="#008BFD" font-family="Calibri,Calibri_MSFontService,sans-serif" font-weight="400" font-size="10" transform="matrix(1.33242 0 0 1.33204 421.51 472)">Mobile</text><text fill="#008BFD" font-family="Calibri,Calibri_MSFontService,sans-serif" font-weight="400" font-size="10" transform="matrix(1.33242 0 0 1.33204 429.731 488)">App</text><path d="M0 644.706 97.9314 644.706C117.794 644.706 133.896 660.808 133.896 680.671L133.896 798.583C133.896 818.446 149.998 834.548 169.861 834.548L264.876 834.548" stroke="#505050" stroke-width="1.99806" stroke-linecap="round" stroke-linejoin="round" stroke-miterlimit="3" fill="none" fill-rule="evenodd" transform="matrix(1.00029 0 0 1 460.288 -402.046)"/><path d="M10.7096 5.35479 0 0 10.6087-5.31938C8.95176-1.9519 8.95862 1.99541 10.6274 5.35709" fill="#505050" fill-rule="evenodd" transform="matrix(-1.00029 0 0 -1 734.614 432.501)"/><path d="M19.9406 643.694 1.01235 643.694 1.01235 605.89 19.9406 605.89 19.9406 616.12 20.9529 616.12 20.9529 604.878 0 604.878 0 644.706 20.9529 644.706 20.9529 641.616 19.9406 641.616 19.9406 643.694Z" fill="#0078D7" fill-rule="evenodd" transform="matrix(1.00029 0 0 1 427.373 -94.5965)"/><path d="M16.8369 638.605 0 638.605 0 644.706 16.8369 644.706 16.8369 638.605ZM4.07603 641.149 12.7742 641.149 12.7742 642.162 4.07603 642.162 4.07603 641.149ZM12.8542 643.614 12.721 643.614 4.15596 643.614 4.03607 643.614 4.03607 642.588 4.15596 642.588 12.721 642.588 12.8542 642.588 12.8542 643.614Z" fill="#0078D7" fill-rule="evenodd" transform="matrix(1.00029 0 0 1 429.452 -126.245)"/><path d="M0 640.643 0 644.706 11.4555 644.706 11.4555 642.668 16.8902 642.668 16.8902 640.643 0 640.643Z" fill="#0078D7" fill-rule="evenodd" transform="matrix(1.00029 0 0 1 429.41 -121.154)"/><path d="M0 641.147 11.4545 641.147 11.4545 644.71 3.67481e-07 644.71Z" fill="#0078D7" fill-rule="evenodd" transform="matrix(1.00029 0 0 1 429.41 -116.572)"/><path d="M0.0399611 644.706 16.8902 644.706 16.8902 643.654 11.4555 643.654 11.4555 625.831 0 625.831 0 644.706 0.0399611 644.706ZM2.07798 641.056 5.12834 641.056 5.12834 642.668 2.07798 642.668 2.07798 641.056Z" fill="#0078D7" fill-rule="evenodd" transform="matrix(1.00029 0 0 1 429.368 -96.6329)"/><path d="M11.6287 643.187 8.35187 643.187 8.35187 640.683 5.00846 640.683 5.00846 643.187 1.74497 643.187C0.852504 643.187 0 643.947 0 644.706L13.3603 644.706C13.4003 643.947 12.5211 643.187 11.6287 643.187Z" fill="#0078D7" fill-rule="evenodd" transform="matrix(1.00029 0 0 1 448.718 -99.1783)"/><path d="M23.6703 629.614 0.892465 629.614C0.426252 629.614 0 629.947 0 630.413L0 643.907C0 644.333 0.386291 644.706 0.892465 644.706L23.6703 644.706C24.1365 644.706 24.5628 644.373 24.5628 643.907L24.5628 630.413C24.5628 629.947 24.1765 629.614 23.6703 629.614ZM22.3116 642.721 2.25114 642.721 2.25114 631.639 22.3116 631.639 22.3116 642.721Z" fill="#0078D7" fill-rule="evenodd" transform="matrix(1.00029 0 0 1 443.117 -104.227)"/><path d="M9.33758 642.255 9.33758 637.673 4.66213 635.208 0 637.579 0 642.295 4.66213 644.706 9.33758 642.255ZM3.47662 639.191 4.66213 638.605 5.80768 639.191 4.66213 639.831 3.47662 639.191ZM3.51658 637.673 4.66213 637.073 5.80768 637.673 4.66213 638.299 3.51658 637.673ZM6.06077 643.694 4.79533 644.373 4.79533 643.134 6.06077 642.468 6.06077 643.694ZM6.06077 642.122 4.79533 642.801 4.79533 641.576 6.06077 640.896 6.06077 642.122ZM6.06077 640.643 4.79533 641.323 4.79533 640.084 6.06077 639.404 6.06077 640.643ZM4.9685 638.432 6.11405 637.833 7.29956 638.432 6.15401 639.031 4.9685 638.432ZM7.63257 642.881 6.36714 643.56 6.36714 642.335 7.63257 641.656 7.63257 642.881ZM7.63257 641.323 6.36714 641.989 6.36714 640.763 7.63257 640.084 7.63257 641.323ZM7.63257 639.791 6.36714 640.47 6.36714 639.284 7.63257 638.605 7.63257 639.791ZM9.03121 642.122 7.88566 642.721 7.88566 641.482 9.03121 640.896 9.03121 642.122ZM9.03121 640.59 7.88566 641.189 7.88566 639.964 9.03121 639.364 9.03121 640.59ZM9.03121 639.071 7.88566 639.657 7.88566 638.432 9.03121 637.833 9.03121 639.071ZM8.77812 637.673 7.59261 638.259 6.4071 637.673 7.55265 637.073 8.77812 637.673ZM7.29956 636.9 6.11405 637.5 4.9685 636.9 6.11405 636.314 7.29956 636.9ZM4.66213 635.502 5.80768 636.101 4.66213 636.687 3.47662 636.101 4.66213 635.502ZM3.18357 636.314 4.32912 636.9 3.18357 637.5 2.03802 636.9 3.18357 636.314ZM1.74497 637.073 2.93048 637.673 1.74497 638.259 0.546135 637.673 1.74497 637.073ZM1.39864 642.761 0.253087 642.162 0.253087 640.936 1.39864 641.522 1.39864 642.761ZM1.39864 641.189 0.253087 640.59 0.253087 639.364 1.39864 639.964 1.39864 641.189ZM1.39864 639.657 0.253087 639.071 0.253087 637.886 1.39864 638.472 1.39864 639.657ZM2.97044 643.56 1.69169 642.881 1.69169 641.656 2.97044 642.335 2.97044 643.56ZM2.97044 641.989 1.69169 641.323 1.69169 640.084 2.97044 640.763 2.97044 641.989ZM2.97044 640.47 1.69169 639.791 1.69169 638.605 2.97044 639.284 2.97044 640.47ZM2.03802 638.432 3.22353 637.833 4.36908 638.432 3.18357 639.071 2.03802 638.432ZM4.54225 644.373 3.26349 643.694 3.26349 642.508 4.54225 643.187 4.54225 644.373ZM4.54225 642.841 3.26349 642.162 3.26349 640.936 4.54225 641.616 4.54225 642.841ZM4.54225 641.323 3.26349 640.643 3.26349 639.404 4.54225 640.084 4.54225 641.323Z" fill="#0078D7" fill-rule="evenodd" transform="matrix(1.00029 0 0 1 451.265 -107.069)"/><text fill="#0078D7" font-family="Calibri,Calibri_MSFontService,sans-serif" font-weight="400" font-size="10" transform="matrix(1.33242 0 0 1.33204 412.876 564)">Desktop App</text><path d="M4.82197 631.545C1.75829 632.291 0 635.688 0.879144 639.085 1.75829 642.495 4.82197 644.706 7.89898 643.973 10.9627 643.227 12.721 639.831 11.8418 636.434 11.1092 632.877 7.89898 630.666 4.82197 631.545Z" fill="#008BFD" fill-rule="evenodd" transform="matrix(1.00029 0 0 1 362.632 -391.775)"/><path d="M16.5306 636.287C15.9445 636.287 15.3584 637.313 14.4792 637.766 13.6001 638.206 12.721 638.938 10.2434 637.766 7.75246 636.58 7.45941 635.542 5.40807 635.542 3.37005 635.542 0 639.245 0 644.706L20.7665 644.706C20.7665 644.706 20.4734 641.016 19.3012 639.085 17.836 636.287 17.1167 636.287 16.5306 636.287Z" fill="#008BFD" fill-rule="evenodd" transform="matrix(1.00029 0 0 1 357.5 -383.167)"/><path d="M6.35382 630.839 0.865824 630.839C0.439572 630.839 0 631.279 0 631.719L0 635.515C0 635.954 0.439572 636.394 1.01235 636.394L2.0247 636.394 2.0247 643.254C2.0247 644.12 2.59747 644.706 3.31677 644.706 4.03607 644.706 4.62217 644.12 4.62217 643.401 4.76869 643.401 4.9019 643.401 4.9019 643.401 4.9019 643.401 4.9019 642.668 4.9019 642.521 4.9019 642.228 5.34147 642.082 5.34147 642.082 5.34147 642.082 5.34147 641.642 5.34147 641.642 4.9019 641.496 4.62217 641.203 4.62217 641.056L4.62217 640.63C4.76869 640.483 4.9019 640.337 4.9019 640.337 5.04842 640.19 5.34147 639.604 5.34147 639.604 5.34147 639.604 4.9019 639.018 4.9019 638.872 4.76869 638.725 4.76869 638.432 4.62217 638.285L4.62217 637.992C4.76869 637.273 5.63452 636.541 5.63452 636.541L6.35382 636.541C6.78007 636.541 7.21964 636.101 7.21964 635.661L7.21964 631.719C7.21964 631.279 6.92659 630.839 6.35382 630.839ZM3.17025 643.547C3.17025 643.84 3.17025 643.987 2.89052 643.987 2.59747 643.987 2.59747 643.694 2.59747 643.547L2.59747 637.127C2.59747 636.834 2.744 636.687 2.89052 636.687 3.17025 636.687 3.17025 636.98 3.17025 637.127L3.17025 643.547ZM3.60982 633.184C3.17025 633.184 2.744 632.744 2.744 632.305 2.744 631.865 3.17025 631.425 3.60982 631.425 4.03607 631.425 4.47564 631.865 4.47564 632.305 4.47564 632.744 4.1826 633.184 3.60982 633.184Z" stroke="#808080" stroke-width="0.999028" stroke-linecap="round" stroke-linejoin="round" stroke-miterlimit="3" fill="#008BFD" fill-rule="evenodd" transform="matrix(1.00029 0 0 1 369.556 -384.312)"/><path d="M0.293048 644.706C0.146524 644.706 0 644.559 0 644.413L0 637.766C0 637.606 0.146524 637.46 0.293048 637.46 0.439572 637.46 0.586096 637.606 0.586096 637.766L0.586096 644.559C0.586096 644.706 0.439572 644.706 0.293048 644.706Z" fill="#FFFFFF" fill-rule="evenodd" transform="matrix(1.00029 0 0 1 372.121 -385.073)"/><path d="M1.75497 643.823C1.75497 644.313 1.36211 644.71 0.877487 644.71 0.392864 644.71 2.3557e-08 644.313 2.3557e-08 643.823 2.3557e-08 643.333 0.392864 642.936 0.877487 642.936 1.36211 642.936 1.75497 643.333 1.75497 643.823Z" fill="#FFFFFF" fill-rule="evenodd" transform="matrix(1.00029 0 0 1 372.301 -395.852)"/><path d="M0 644.706 97.9314 644.706C117.794 644.706 133.896 660.808 133.896 680.671L133.896 705.593C133.896 725.456 149.998 741.558 169.861 741.558L264.876 741.558" stroke="#505050" stroke-width="1.99806" stroke-linecap="round" stroke-linejoin="round" stroke-miterlimit="3" fill="none" fill-rule="evenodd" transform="matrix(1.00029 0 0 1 460.288 -309.066)"/><path d="M10.7096 5.35479 0 0 10.6087-5.31938C8.95176-1.9519 8.95862 1.99541 10.6274 5.35709" fill="#505050" fill-rule="evenodd" transform="matrix(-1.00029 0 0 -1 734.614 432.492)"/><path d="M0 654.097 269.711 654.19" stroke="#505050" stroke-width="1.99806" stroke-linecap="round" stroke-linejoin="round" stroke-miterlimit="3" fill="none" fill-rule="evenodd" transform="matrix(1.00029 0 0 1 455.458 -221.702)"/><path d="M10.7096 5.35479 0 0 10.6087-5.31938C8.95176-1.9519 8.95862 1.99541 10.6274 5.35709" fill="#505050" fill-rule="evenodd" transform="matrix(-1.00029 -0.000345713 0.000345813 -1 734.62 432.491)"/><path d="M0 644.706 94.2416 644.706C114.105 644.706 130.207 628.604 130.207 608.741L130.207 582.979C130.207 563.116 146.309 547.014 166.172 547.014L255.911 547.014" stroke="#505050" stroke-width="1.99806" stroke-linecap="round" stroke-linejoin="round" stroke-miterlimit="3" fill="none" fill-rule="evenodd" transform="matrix(1.00029 0 0 1 469.267 -114.514)"/><path d="M10.7096 5.35479 0 0 10.6087-5.31938C8.95176-1.9519 8.95862 1.99541 10.6274 5.35709" fill="#505050" fill-rule="evenodd" transform="matrix(-1.00029 0 0 -1 734.626 432.5)"/><path d="M0 644.706 110.186 644.706C130.049 644.706 146.151 628.604 146.151 608.741L146.151 490.842C146.151 470.979 162.253 454.877 182.116 454.877L271.855 454.877" stroke="#505050" stroke-width="1.99806" stroke-linecap="round" stroke-linejoin="round" stroke-miterlimit="3" fill="none" fill-rule="evenodd" transform="matrix(1.00029 0 0 1 453.318 -22.3833)"/><path d="M10.7096 5.35479 0 0 10.6087-5.31938C8.95176-1.9519 8.95862 1.99541 10.6274 5.35709" fill="#505050" fill-rule="evenodd" transform="matrix(-1.00029 0 0 -1 734.625 432.494)"/><path d="M28.7587 610.726 1.45192 610.726C0.652698 610.726 0 611.378 0 612.204L0 634.503C0 635.315 0.652698 635.968 1.45192 635.968L8.48507 635.968C9.04453 637.766 10.7362 638.991 12.7609 638.991 15.1852 638.991 17.2099 636.953 17.2099 634.503 17.2099 632.052 15.1852 630 12.7609 630 10.7362 630 9.04453 631.226 8.48507 633.024L2.90384 633.024 2.90384 617.093 27.2934 617.093 27.2934 633.024 22.6979 633.024C22.0452 628.122 17.7694 624.286 12.7609 624.286 11.0692 624.286 9.36422 624.779 7.9123 625.511L9.2843 628.122C10.2567 627.549 11.5488 627.23 12.681 627.23 16.5572 627.23 19.874 630.493 19.874 634.503 19.874 638.499 16.6371 641.775 12.681 641.775 11.4688 641.775 10.3366 641.442 9.2843 640.87L7.9123 643.48C9.36422 644.306 11.0692 644.706 12.7609 644.706 17.7694 644.706 22.0452 640.87 22.6979 635.968L28.7587 635.968C29.5579 635.968 30.2106 635.315 30.2106 634.503L30.2106 612.204C30.2106 611.458 29.5579 610.726 28.7587 610.726Z" fill="#008BFD" fill-rule="evenodd" transform="matrix(1.00029 0 0 1 878.718 -195.224)"/><text fill="#008BFD" font-family="Calibri,Calibri_MSFontService,sans-serif" font-weight="400" font-size="10" transform="matrix(1.33242 0 0 1.33204 872.495 467)">API App</text><path d="M0 635.275 102.753 635.275" stroke="#505050" stroke-width="1.99806" stroke-linecap="round" stroke-linejoin="round" stroke-miterlimit="3" fill="none" fill-rule="evenodd" transform="matrix(1.00029 0 0 1 765.984 -202.775)"/><path d="M10.7096 5.35479 0 0 10.6087-5.31938C8.95176-1.9519 8.95862 1.99541 10.6274 5.35709" fill="#505050" fill-rule="evenodd" transform="matrix(-1.00029 0 0 -1 878.141 432.5)"/><path d="M4.82197 631.545C1.75829 632.291 0 635.688 0.879144 639.085 1.75829 642.495 4.82197 644.706 7.89898 643.973 10.9627 643.227 12.721 639.831 11.8418 636.434 11.1092 632.877 7.89898 630.666 4.82197 631.545Z" fill="#008BFD" fill-rule="evenodd" transform="matrix(1.00029 0 0 1 365.937 -306.346)"/><path d="M16.5306 636.287C15.9445 636.287 15.3584 637.313 14.4792 637.766 13.6001 638.206 12.721 638.938 10.2434 637.766 7.75246 636.58 7.45941 635.542 5.40807 635.542 3.37005 635.542 0 639.245 0 644.706L20.7665 644.706C20.7665 644.706 20.4734 641.016 19.3012 639.085 17.836 636.287 17.1167 636.287 16.5306 636.287Z" fill="#008BFD" fill-rule="evenodd" transform="matrix(1.00029 0 0 1 360.805 -297.739)"/><path d="M6.35382 630.839 0.865824 630.839C0.439572 630.839 0 631.279 0 631.719L0 635.515C0 635.954 0.439572 636.394 1.01235 636.394L2.0247 636.394 2.0247 643.254C2.0247 644.12 2.59747 644.706 3.31677 644.706 4.03607 644.706 4.62217 644.12 4.62217 643.401 4.76869 643.401 4.9019 643.401 4.9019 643.401 4.9019 643.401 4.9019 642.668 4.9019 642.521 4.9019 642.228 5.34147 642.082 5.34147 642.082 5.34147 642.082 5.34147 641.642 5.34147 641.642 4.9019 641.496 4.62217 641.203 4.62217 641.056L4.62217 640.63C4.76869 640.483 4.9019 640.337 4.9019 640.337 5.04842 640.19 5.34147 639.604 5.34147 639.604 5.34147 639.604 4.9019 639.018 4.9019 638.872 4.76869 638.725 4.76869 638.432 4.62217 638.285L4.62217 637.992C4.76869 637.273 5.63452 636.541 5.63452 636.541L6.35382 636.541C6.78007 636.541 7.21964 636.101 7.21964 635.661L7.21964 631.719C7.21964 631.279 6.92659 630.839 6.35382 630.839ZM3.17025 643.547C3.17025 643.84 3.17025 643.987 2.89052 643.987 2.59747 643.987 2.59747 643.694 2.59747 643.547L2.59747 637.127C2.59747 636.834 2.744 636.687 2.89052 636.687 3.17025 636.687 3.17025 636.98 3.17025 637.127L3.17025 643.547ZM3.60982 633.184C3.17025 633.184 2.744 632.744 2.744 632.305 2.744 631.865 3.17025 631.425 3.60982 631.425 4.03607 631.425 4.47564 631.865 4.47564 632.305 4.47564 632.744 4.1826 633.184 3.60982 633.184Z" stroke="#808080" stroke-width="0.999028" stroke-linecap="round" stroke-linejoin="round" stroke-miterlimit="3" fill="#008BFD" fill-rule="evenodd" transform="matrix(1.00029 0 0 1 372.861 -298.883)"/><path d="M0.293048 644.706C0.146524 644.706 0 644.559 0 644.413L0 637.766C0 637.606 0.146524 637.46 0.293048 637.46 0.439572 637.46 0.586096 637.606 0.586096 637.766L0.586096 644.559C0.586096 644.706 0.439572 644.706 0.293048 644.706Z" fill="#FFFFFF" fill-rule="evenodd" transform="matrix(1.00029 0 0 1 375.426 -299.644)"/><path d="M1.75497 643.823C1.75497 644.313 1.36211 644.71 0.877487 644.71 0.392864 644.71 2.3557e-08 644.313 2.3557e-08 643.823 2.3557e-08 643.333 0.392864 642.936 0.877487 642.936 1.36211 642.936 1.75497 643.333 1.75497 643.823Z" fill="#FFFFFF" fill-rule="evenodd" transform="matrix(1.00029 0 0 1 375.606 -310.423)"/><path d="M4.82197 631.545C1.75829 632.291 0 635.688 0.879144 639.085 1.75829 642.495 4.82197 644.706 7.89898 643.973 10.9627 643.227 12.721 639.831 11.8418 636.434 11.1092 632.877 7.89898 630.666 4.82197 631.545Z" fill="#008BFD" fill-rule="evenodd" transform="matrix(1.00029 0 0 1 362.632 -492.306)"/><path d="M16.5306 636.287C15.9445 636.287 15.3584 637.313 14.4792 637.766 13.6001 638.206 12.721 638.938 10.2434 637.766 7.75246 636.58 7.45941 635.542 5.40807 635.542 3.37005 635.542 0 639.245 0 644.706L20.7665 644.706C20.7665 644.706 20.4734 641.016 19.3012 639.085 17.836 636.287 17.1167 636.287 16.5306 636.287Z" fill="#008BFD" fill-rule="evenodd" transform="matrix(1.00029 0 0 1 357.5 -483.699)"/><path d="M6.35382 630.839 0.865824 630.839C0.439572 630.839 0 631.279 0 631.719L0 635.515C0 635.954 0.439572 636.394 1.01235 636.394L2.0247 636.394 2.0247 643.254C2.0247 644.12 2.59747 644.706 3.31677 644.706 4.03607 644.706 4.62217 644.12 4.62217 643.401 4.76869 643.401 4.9019 643.401 4.9019 643.401 4.9019 643.401 4.9019 642.668 4.9019 642.521 4.9019 642.228 5.34147 642.082 5.34147 642.082 5.34147 642.082 5.34147 641.642 5.34147 641.642 4.9019 641.496 4.62217 641.203 4.62217 641.056L4.62217 640.63C4.76869 640.483 4.9019 640.337 4.9019 640.337 5.04842 640.19 5.34147 639.604 5.34147 639.604 5.34147 639.604 4.9019 639.018 4.9019 638.872 4.76869 638.725 4.76869 638.432 4.62217 638.285L4.62217 637.992C4.76869 637.273 5.63452 636.541 5.63452 636.541L6.35382 636.541C6.78007 636.541 7.21964 636.101 7.21964 635.661L7.21964 631.719C7.21964 631.279 6.92659 630.839 6.35382 630.839ZM3.17025 643.547C3.17025 643.84 3.17025 643.987 2.89052 643.987 2.59747 643.987 2.59747 643.694 2.59747 643.547L2.59747 637.127C2.59747 636.834 2.744 636.687 2.89052 636.687 3.17025 636.687 3.17025 636.98 3.17025 637.127L3.17025 643.547ZM3.60982 633.184C3.17025 633.184 2.744 632.744 2.744 632.305 2.744 631.865 3.17025 631.425 3.60982 631.425 4.03607 631.425 4.47564 631.865 4.47564 632.305 4.47564 632.744 4.1826 633.184 3.60982 633.184Z" stroke="#808080" stroke-width="0.999028" stroke-linecap="round" stroke-linejoin="round" stroke-miterlimit="3" fill="#008BFD" fill-rule="evenodd" transform="matrix(1.00029 0 0 1 369.556 -484.844)"/><path d="M0.293048 644.706C0.146524 644.706 0 644.559 0 644.413L0 637.766C0 637.606 0.146524 637.46 0.293048 637.46 0.439572 637.46 0.586096 637.606 0.586096 637.766L0.586096 644.559C0.586096 644.706 0.439572 644.706 0.293048 644.706Z" fill="#FFFFFF" fill-rule="evenodd" transform="matrix(1.00029 0 0 1 372.121 -485.604)"/><path d="M1.75497 643.823C1.75497 644.313 1.36211 644.71 0.877487 644.71 0.392864 644.71 2.3557e-08 644.313 2.3557e-08 643.823 2.3557e-08 643.333 0.392864 642.936 0.877487 642.936 1.36211 642.936 1.75497 643.333 1.75497 643.823Z" fill="#FFFFFF" fill-rule="evenodd" transform="matrix(1.00029 0 0 1 372.301 -496.383)"/><path d="M4.82197 631.545C1.75829 632.291 0 635.688 0.879144 639.085 1.75829 642.495 4.82197 644.706 7.89898 643.973 10.9627 643.227 12.721 639.831 11.8418 636.434 11.1092 632.877 7.89898 630.666 4.82197 631.545Z" fill="#008BFD" fill-rule="evenodd" transform="matrix(1.00029 0 0 1 365.937 -103.204)"/><path d="M16.5306 636.287C15.9445 636.287 15.3584 637.313 14.4792 637.766 13.6001 638.206 12.721 638.938 10.2434 637.766 7.75246 636.58 7.45941 635.542 5.40807 635.542 3.37005 635.542 0 639.245 0 644.706L20.7665 644.706C20.7665 644.706 20.4734 641.016 19.3012 639.085 17.836 636.287 17.1167 636.287 16.5306 636.287Z" fill="#008BFD" fill-rule="evenodd" transform="matrix(1.00029 0 0 1 360.805 -94.5965)"/><path d="M6.35382 630.839 0.865824 630.839C0.439572 630.839 0 631.279 0 631.719L0 635.515C0 635.954 0.439572 636.394 1.01235 636.394L2.0247 636.394 2.0247 643.254C2.0247 644.12 2.59747 644.706 3.31677 644.706 4.03607 644.706 4.62217 644.12 4.62217 643.401 4.76869 643.401 4.9019 643.401 4.9019 643.401 4.9019 643.401 4.9019 642.668 4.9019 642.521 4.9019 642.228 5.34147 642.082 5.34147 642.082 5.34147 642.082 5.34147 641.642 5.34147 641.642 4.9019 641.496 4.62217 641.203 4.62217 641.056L4.62217 640.63C4.76869 640.483 4.9019 640.337 4.9019 640.337 5.04842 640.19 5.34147 639.604 5.34147 639.604 5.34147 639.604 4.9019 639.018 4.9019 638.872 4.76869 638.725 4.76869 638.432 4.62217 638.285L4.62217 637.992C4.76869 637.273 5.63452 636.541 5.63452 636.541L6.35382 636.541C6.78007 636.541 7.21964 636.101 7.21964 635.661L7.21964 631.719C7.21964 631.279 6.92659 630.839 6.35382 630.839ZM3.17025 643.547C3.17025 643.84 3.17025 643.987 2.89052 643.987 2.59747 643.987 2.59747 643.694 2.59747 643.547L2.59747 637.127C2.59747 636.834 2.744 636.687 2.89052 636.687 3.17025 636.687 3.17025 636.98 3.17025 637.127L3.17025 643.547ZM3.60982 633.184C3.17025 633.184 2.744 632.744 2.744 632.305 2.744 631.865 3.17025 631.425 3.60982 631.425 4.03607 631.425 4.47564 631.865 4.47564 632.305 4.47564 632.744 4.1826 633.184 3.60982 633.184Z" stroke="#808080" stroke-width="0.999028" stroke-linecap="round" stroke-linejoin="round" stroke-miterlimit="3" fill="#008BFD" fill-rule="evenodd" transform="matrix(1.00029 0 0 1 372.861 -95.7414)"/><path d="M0.293048 644.706C0.146524 644.706 0 644.559 0 644.413L0 637.766C0 637.606 0.146524 637.46 0.293048 637.46 0.439572 637.46 0.586096 637.606 0.586096 637.766L0.586096 644.559C0.586096 644.706 0.439572 644.706 0.293048 644.706Z" fill="#FFFFFF" fill-rule="evenodd" transform="matrix(1.00029 0 0 1 375.426 -96.5016)"/><path d="M1.75497 643.823C1.75497 644.313 1.36211 644.71 0.877487 644.71 0.392864 644.71 2.3557e-08 644.313 2.3557e-08 643.823 2.3557e-08 643.333 0.392864 642.936 0.877487 642.936 1.36211 642.936 1.75497 643.333 1.75497 643.823Z" fill="#FFFFFF" fill-rule="evenodd" transform="matrix(1.00029 0 0 1 375.606 -107.281)"/><path d="M4.82197 631.545C1.75829 632.291 0 635.688 0.879144 639.085 1.75829 642.495 4.82197 644.706 7.89898 643.973 10.9627 643.227 12.721 639.831 11.8418 636.434 11.1092 632.877 7.89898 630.666 4.82197 631.545Z" fill="#008BFD" fill-rule="evenodd" transform="matrix(1.00029 0 0 1 365.937 -19.6629)"/><path d="M16.5306 636.287C15.9445 636.287 15.3584 637.313 14.4792 637.766 13.6001 638.206 12.721 638.938 10.2434 637.766 7.75246 636.58 7.45941 635.542 5.40807 635.542 3.37005 635.542 0 639.245 0 644.706L20.7665 644.706C20.7665 644.706 20.4734 641.016 19.3012 639.085 17.836 636.287 17.1167 636.287 16.5306 636.287Z" fill="#008BFD" fill-rule="evenodd" transform="matrix(1.00029 0 0 1 360.805 -11.0557)"/><path d="M6.35382 630.839 0.865824 630.839C0.439572 630.839 0 631.279 0 631.719L0 635.515C0 635.954 0.439572 636.394 1.01235 636.394L2.0247 636.394 2.0247 643.254C2.0247 644.12 2.59747 644.706 3.31677 644.706 4.03607 644.706 4.62217 644.12 4.62217 643.401 4.76869 643.401 4.9019 643.401 4.9019 643.401 4.9019 643.401 4.9019 642.668 4.9019 642.521 4.9019 642.228 5.34147 642.082 5.34147 642.082 5.34147 642.082 5.34147 641.642 5.34147 641.642 4.9019 641.496 4.62217 641.203 4.62217 641.056L4.62217 640.63C4.76869 640.483 4.9019 640.337 4.9019 640.337 5.04842 640.19 5.34147 639.604 5.34147 639.604 5.34147 639.604 4.9019 639.018 4.9019 638.872 4.76869 638.725 4.76869 638.432 4.62217 638.285L4.62217 637.992C4.76869 637.273 5.63452 636.541 5.63452 636.541L6.35382 636.541C6.78007 636.541 7.21964 636.101 7.21964 635.661L7.21964 631.719C7.21964 631.279 6.92659 630.839 6.35382 630.839ZM3.17025 643.547C3.17025 643.84 3.17025 643.987 2.89052 643.987 2.59747 643.987 2.59747 643.694 2.59747 643.547L2.59747 637.127C2.59747 636.834 2.744 636.687 2.89052 636.687 3.17025 636.687 3.17025 636.98 3.17025 637.127L3.17025 643.547ZM3.60982 633.184C3.17025 633.184 2.744 632.744 2.744 632.305 2.744 631.865 3.17025 631.425 3.60982 631.425 4.03607 631.425 4.47564 631.865 4.47564 632.305 4.47564 632.744 4.1826 633.184 3.60982 633.184Z" stroke="#808080" stroke-width="0.999028" stroke-linecap="round" stroke-linejoin="round" stroke-miterlimit="3" fill="#008BFD" fill-rule="evenodd" transform="matrix(1.00029 0 0 1 372.861 -12.2005)"/><path d="M0.293048 644.706C0.146524 644.706 0 644.559 0 644.413L0 637.766C0 637.606 0.146524 637.46 0.293048 637.46 0.439572 637.46 0.586096 637.606 0.586096 637.766L0.586096 644.559C0.586096 644.706 0.439572 644.706 0.293048 644.706Z" fill="#FFFFFF" fill-rule="evenodd" transform="matrix(1.00029 0 0 1 375.426 -12.9608)"/><path d="M1.75497 643.823C1.75497 644.313 1.36211 644.71 0.877487 644.71 0.392864 644.71 2.3557e-08 644.313 2.3557e-08 643.823 2.3557e-08 643.333 0.392864 642.936 0.877487 642.936 1.36211 642.936 1.75497 643.333 1.75497 643.823Z" fill="#FFFFFF" fill-rule="evenodd" transform="matrix(1.00029 0 0 1 375.606 -23.7402)"/><path d="M30.4903 638.872C27.5865 641.149 24.1632 642.255 20.7798 642.255 15.9711 642.255 11.2158 640.044 8.05882 635.821 2.69071 628.615 4.02275 618.318 11.0426 612.79 13.9464 610.513 17.3698 609.42 20.7531 609.42 25.5751 609.42 30.3172 611.631 33.4741 615.854 38.8422 623.047 37.5102 633.357 30.4903 638.872ZM35.3656 614.349C31.7424 609.487 26.2811 606.956 20.7531 606.956 16.8636 606.956 12.9208 608.221 9.57735 610.846 1.53184 617.186 0 629.028 6.18065 637.313 9.79047 642.175 15.2651 644.706 20.7798 644.706 24.6826 644.706 28.6255 643.454 31.9556 640.816 40.0011 634.489 41.5329 622.634 35.3656 614.349Z" fill="#008BFD" fill-rule="evenodd" transform="matrix(1.00029 0 0 1 419.819 -569.128)"/><path d="M4.82197 635.355C3.75634 634.276 2.90384 633.237 2.21118 632.225 0.679339 635.435 0.133204 638.752 0 641.389 0.146524 641.602 0.146524 641.762 0.306368 641.975 1.07895 642.988 2.03802 643.947 2.97044 644.706 2.83724 642.548 3.02372 639.018 4.82197 635.355Z" fill="#008BFD" fill-rule="evenodd" transform="matrix(1.00029 0 0 1 427.46 -575.218)"/><path d="M6.58026 634.729C5.12834 635.755 3.64978 637.06 2.14458 638.698 1.31872 639.591 0.612737 640.497 0 641.429 0.639378 642.481 1.47856 643.574 2.53087 644.706 3.31677 643.56 4.28916 642.415 5.46135 641.296 6.93991 639.871 8.32523 638.738 9.63063 637.819 8.565 636.807 7.52601 635.781 6.58026 634.729Z" fill="#008BFD" fill-rule="evenodd" transform="matrix(1.00029 0 0 1 431.264 -587.175)"/><path d="M13.014 641.949C12.3213 641.029 11.5354 640.244 10.7096 639.511 8.23199 639.125 4.39572 639.178 0 641.562 1.01235 642.681 2.01138 643.734 2.98376 644.706 8.84473 641.469 13.014 641.949 13.014 641.949Z" fill="#008BFD" fill-rule="evenodd" transform="matrix(1.00029 0 0 1 440.115 -595.459)"/><path d="M2.79728 644.706C3.25017 643.8 3.78298 642.868 4.3824 641.962 1.86485 637.873 1.98474 634.489 2.25114 632.917 1.62509 633.597 1.03899 634.289 0.532815 635.049 0.0266407 637.193 0 640.603 2.79728 644.706Z" fill="#008BFD" fill-rule="evenodd" transform="matrix(1.00029 0 0 1 426.878 -587.712)"/><path d="M4.54225 636.58C3.37005 635.621 2.37103 634.662 1.51852 633.73 0.905785 634.609 0.412931 635.475 0 636.327 0.799222 637.167 1.73165 638.006 2.78396 638.872 9.33758 644.213 15.8512 644.706 19.5143 644.706 19.7541 644.706 20.8997 643.121 21.5657 642.122 19.9273 642.468 12.9208 643.387 4.54225 636.58Z" fill="#008BFD" fill-rule="evenodd" transform="matrix(1.00029 0 0 1 432.276 -576.204)"/><path d="M0 641.576C0.679339 642.588 1.53184 643.627 2.59747 644.706 3.0104 643.853 3.51658 642.988 4.11599 642.108 3.06368 640.976 2.2245 639.884 1.58512 638.832 0.959067 639.737 0.439572 640.67 0 641.576Z" fill="#008BFD" fill-rule="evenodd" transform="matrix(1.00029 0 0 1 429.68 -584.582)"/><path d="M0 632.957C5.98085 638.632 13.054 643.454 14.8522 644.706 15.0387 644.24 15.1586 643.787 15.2918 643.307 13.3603 641.842 8.28527 637.766 2.19786 631.559 1.49188 631.958 0.759261 632.424 0 632.957Z" fill="#008BFD" fill-rule="evenodd" transform="matrix(1.00029 0 0 1 440.894 -582.308)"/><path d="M6.59358 643.267C5.12834 641.695 3.63646 640.004 2.11794 638.206 1.38532 638.432 0.679339 638.738 0 639.085 1.11891 640.963 2.62411 642.854 4.3158 644.706 5.08838 644.146 5.83432 643.667 6.59358 643.267Z" fill="#008BFD" fill-rule="evenodd" transform="matrix(1.00029 0 0 1 433.523 -597.158)"/><path d="M2.49091 639.99C1.74497 640.403 0.759261 641.016 0 641.576 0.959067 642.615 1.93145 643.694 2.99708 644.706 3.75634 644.173 4.78201 643.534 5.48799 643.134 4.50229 642.162 3.50326 641.109 2.49091 639.99Z" fill="#008BFD" fill-rule="evenodd" transform="matrix(1.00029 0 0 1 437.72 -593.933)"/><path d="M2.2245 639.791C1.46524 640.204 0.759261 640.723 0 641.283 0.959067 642.335 2.31774 643.694 3.38337 644.706 4.14263 644.173 4.78201 643.64 5.48799 643.227 4.50229 642.268 3.22353 640.896 2.2245 639.791Z" fill="#008BFD" fill-rule="evenodd" transform="matrix(1.00029 0 0 1 437.719 -593.871)"/><path d="M1.78493 637.939C0.293048 639.111 0 641.336 1.14555 642.868 2.31774 644.426 4.47564 644.706 5.98085 643.534 7.47273 642.362 7.76578 640.137 6.62022 638.592 5.46135 637.06 3.31677 636.74 1.78493 637.939Z" fill="#008BFD" fill-rule="evenodd" transform="matrix(1.00029 0 0 1 446.224 -583.29)"/><path d="M1.65173 638.432C0.266407 639.524 0 641.589 1.05231 643.014 2.13126 644.439 4.12931 644.706 5.52795 643.614 6.91327 642.521 7.17968 640.47 6.11405 639.045 5.04842 637.619 3.05036 637.34 1.65173 638.432Z" fill="#008BFD" fill-rule="evenodd" transform="matrix(1.00029 0 0 1 439.281 -574.983)"/><path d="M2.51755 635.169C0.399611 636.847 0 639.937 1.61176 642.108 3.25017 644.293 6.28721 644.706 8.40515 643.041 10.5231 641.376 10.9227 638.272 9.29762 636.074 7.67253 633.93 4.63549 633.503 2.51755 635.169Z" fill="#008BFD" fill-rule="evenodd" transform="matrix(1.00029 0 0 1 426.422 -582.128)"/><text fill="#008BFD" font-family="Calibri,Calibri_MSFontService,sans-serif" font-weight="400" font-size="10" transform="matrix(1.33242 0 0 1.33204 409.933 93)">Single Page</text><text fill="#008BFD" font-family="Calibri,Calibri_MSFontService,sans-serif" font-weight="400" font-size="10" transform="matrix(1.33242 0 0 1.33204 408.387 109)"> </text><text fill="#008BFD" font-family="Calibri,Calibri_MSFontService,sans-serif" font-weight="400" font-size="10" transform="matrix(1.33242 0 0 1.33204 411.052 109)">Application</text><path d="M4.82197 631.545C1.75829 632.291 0 635.688 0.879144 639.085 1.75829 642.495 4.82197 644.706 7.89898 643.973 10.9627 643.227 12.721 639.831 11.8418 636.434 11.1092 632.877 7.89898 630.666 4.82197 631.545Z" fill="#008BFD" fill-rule="evenodd" transform="matrix(1.00029 0 0 1 362.632 -585.286)"/><path d="M16.5306 636.287C15.9445 636.287 15.3584 637.313 14.4792 637.766 13.6001 638.206 12.721 638.938 10.2434 637.766 7.75246 636.58 7.45941 635.542 5.40807 635.542 3.37005 635.542 0 639.245 0 644.706L20.7665 644.706C20.7665 644.706 20.4734 641.016 19.3012 639.085 17.836 636.287 17.1167 636.287 16.5306 636.287Z" fill="#008BFD" fill-rule="evenodd" transform="matrix(1.00029 0 0 1 357.5 -576.679)"/><path d="M6.35382 630.839 0.865824 630.839C0.439572 630.839 0 631.279 0 631.719L0 635.515C0 635.954 0.439572 636.394 1.01235 636.394L2.0247 636.394 2.0247 643.254C2.0247 644.12 2.59747 644.706 3.31677 644.706 4.03607 644.706 4.62217 644.12 4.62217 643.401 4.76869 643.401 4.9019 643.401 4.9019 643.401 4.9019 643.401 4.9019 642.668 4.9019 642.521 4.9019 642.228 5.34147 642.082 5.34147 642.082 5.34147 642.082 5.34147 641.642 5.34147 641.642 4.9019 641.496 4.62217 641.203 4.62217 641.056L4.62217 640.63C4.76869 640.483 4.9019 640.337 4.9019 640.337 5.04842 640.19 5.34147 639.604 5.34147 639.604 5.34147 639.604 4.9019 639.018 4.9019 638.872 4.76869 638.725 4.76869 638.432 4.62217 638.285L4.62217 637.992C4.76869 637.273 5.63452 636.541 5.63452 636.541L6.35382 636.541C6.78007 636.541 7.21964 636.101 7.21964 635.661L7.21964 631.719C7.21964 631.279 6.92659 630.839 6.35382 630.839ZM3.17025 643.547C3.17025 643.84 3.17025 643.987 2.89052 643.987 2.59747 643.987 2.59747 643.694 2.59747 643.547L2.59747 637.127C2.59747 636.834 2.744 636.687 2.89052 636.687 3.17025 636.687 3.17025 636.98 3.17025 637.127L3.17025 643.547ZM3.60982 633.184C3.17025 633.184 2.744 632.744 2.744 632.305 2.744 631.865 3.17025 631.425 3.60982 631.425 4.03607 631.425 4.47564 631.865 4.47564 632.305 4.47564 632.744 4.1826 633.184 3.60982 633.184Z" stroke="#808080" stroke-width="0.999028" stroke-linecap="round" stroke-linejoin="round" stroke-miterlimit="3" fill="#008BFD" fill-rule="evenodd" transform="matrix(1.00029 0 0 1 369.556 -577.824)"/><path d="M0.293048 644.706C0.146524 644.706 0 644.559 0 644.413L0 637.766C0 637.606 0.146524 637.46 0.293048 637.46 0.439572 637.46 0.586096 637.606 0.586096 637.766L0.586096 644.559C0.586096 644.706 0.439572 644.706 0.293048 644.706Z" fill="#FFFFFF" fill-rule="evenodd" transform="matrix(1.00029 0 0 1 372.121 -578.584)"/><path d="M1.75497 643.823C1.75497 644.313 1.36211 644.71 0.877487 644.71 0.392864 644.71 2.3557e-08 644.313 2.3557e-08 643.823 2.3557e-08 643.333 0.392864 642.936 0.877487 642.936 1.36211 642.936 1.75497 643.333 1.75497 643.823Z" fill="#FFFFFF" fill-rule="evenodd" transform="matrix(1.00029 0 0 1 372.301 -589.364)"/><path d="M30.4903 638.872C27.5865 641.149 24.1632 642.255 20.7798 642.255 15.9711 642.255 11.2158 640.044 8.05882 635.821 2.69071 628.615 4.02275 618.318 11.0426 612.79 13.9464 610.513 17.3698 609.42 20.7531 609.42 25.5751 609.42 30.3172 611.631 33.4741 615.854 38.8422 623.047 37.5102 633.357 30.4903 638.872ZM35.3656 614.349C31.7424 609.487 26.2811 606.956 20.7531 606.956 16.8636 606.956 12.9208 608.221 9.57735 610.846 1.53184 617.186 0 629.028 6.18065 637.313 9.79047 642.175 15.2651 644.706 20.7798 644.706 24.6826 644.706 28.6255 643.454 31.9556 640.816 40.0011 634.489 41.5329 622.634 35.3656 614.349Z" fill="#008BFD" fill-rule="evenodd" transform="matrix(1.00029 0 0 1 419.819 -476.148)"/><path d="M4.82197 635.355C3.75634 634.276 2.90384 633.237 2.21118 632.225 0.679339 635.435 0.133204 638.752 0 641.389 0.146524 641.602 0.146524 641.762 0.306368 641.975 1.07895 642.988 2.03802 643.947 2.97044 644.706 2.83724 642.548 3.02372 639.018 4.82197 635.355Z" fill="#008BFD" fill-rule="evenodd" transform="matrix(1.00029 0 0 1 427.46 -482.237)"/><path d="M6.58026 634.729C5.12834 635.755 3.64978 637.06 2.14458 638.698 1.31872 639.591 0.612737 640.497 0 641.429 0.639378 642.481 1.47856 643.574 2.53087 644.706 3.31677 643.56 4.28916 642.415 5.46135 641.296 6.93991 639.871 8.32523 638.738 9.63063 637.819 8.565 636.807 7.52601 635.781 6.58026 634.729Z" fill="#008BFD" fill-rule="evenodd" transform="matrix(1.00029 0 0 1 431.264 -494.195)"/><path d="M13.014 641.949C12.3213 641.029 11.5354 640.244 10.7096 639.511 8.23199 639.125 4.39572 639.178 0 641.562 1.01235 642.681 2.01138 643.734 2.98376 644.706 8.84473 641.469 13.014 641.949 13.014 641.949Z" fill="#008BFD" fill-rule="evenodd" transform="matrix(1.00029 0 0 1 440.115 -502.479)"/><path d="M2.79728 644.706C3.25017 643.8 3.78298 642.868 4.3824 641.962 1.86485 637.873 1.98474 634.489 2.25114 632.917 1.62509 633.597 1.03899 634.289 0.532815 635.049 0.0266407 637.193 0 640.603 2.79728 644.706Z" fill="#008BFD" fill-rule="evenodd" transform="matrix(1.00029 0 0 1 426.878 -494.732)"/><path d="M4.54225 636.58C3.37005 635.621 2.37103 634.662 1.51852 633.73 0.905785 634.609 0.412931 635.475 0 636.327 0.799222 637.167 1.73165 638.006 2.78396 638.872 9.33758 644.213 15.8512 644.706 19.5143 644.706 19.7541 644.706 20.8997 643.121 21.5657 642.122 19.9273 642.468 12.9208 643.387 4.54225 636.58Z" fill="#008BFD" fill-rule="evenodd" transform="matrix(1.00029 0 0 1 432.276 -483.223)"/><path d="M0 641.576C0.679339 642.588 1.53184 643.627 2.59747 644.706 3.0104 643.853 3.51658 642.988 4.11599 642.108 3.06368 640.976 2.2245 639.884 1.58512 638.832 0.959067 639.737 0.439572 640.67 0 641.576Z" fill="#008BFD" fill-rule="evenodd" transform="matrix(1.00029 0 0 1 429.68 -491.602)"/><path d="M0 632.957C5.98085 638.632 13.054 643.454 14.8522 644.706 15.0387 644.24 15.1586 643.787 15.2918 643.307 13.3603 641.842 8.28527 637.766 2.19786 631.559 1.49188 631.958 0.759261 632.424 0 632.957Z" fill="#008BFD" fill-rule="evenodd" transform="matrix(1.00029 0 0 1 440.894 -489.328)"/><path d="M6.59358 643.267C5.12834 641.695 3.63646 640.004 2.11794 638.206 1.38532 638.432 0.679339 638.738 0 639.085 1.11891 640.963 2.62411 642.854 4.3158 644.706 5.08838 644.146 5.83432 643.667 6.59358 643.267Z" fill="#008BFD" fill-rule="evenodd" transform="matrix(1.00029 0 0 1 433.523 -504.178)"/><path d="M2.49091 639.99C1.74497 640.403 0.759261 641.016 0 641.576 0.959067 642.615 1.93145 643.694 2.99708 644.706 3.75634 644.173 4.78201 643.534 5.48799 643.134 4.50229 642.162 3.50326 641.109 2.49091 639.99Z" fill="#008BFD" fill-rule="evenodd" transform="matrix(1.00029 0 0 1 437.72 -500.953)"/><path d="M2.2245 639.791C1.46524 640.204 0.759261 640.723 0 641.283 0.959067 642.335 2.31774 643.694 3.38337 644.706 4.14263 644.173 4.78201 643.64 5.48799 643.227 4.50229 642.268 3.22353 640.896 2.2245 639.791Z" fill="#008BFD" fill-rule="evenodd" transform="matrix(1.00029 0 0 1 437.719 -500.891)"/><path d="M1.78493 637.939C0.293048 639.111 0 641.336 1.14555 642.868 2.31774 644.426 4.47564 644.706 5.98085 643.534 7.47273 642.362 7.76578 640.137 6.62022 638.592 5.46135 637.06 3.31677 636.74 1.78493 637.939Z" fill="#008BFD" fill-rule="evenodd" transform="matrix(1.00029 0 0 1 446.224 -490.31)"/><path d="M1.65173 638.432C0.266407 639.524 0 641.589 1.05231 643.014 2.13126 644.439 4.12931 644.706 5.52795 643.614 6.91327 642.521 7.17968 640.47 6.11405 639.045 5.04842 637.619 3.05036 637.34 1.65173 638.432Z" fill="#008BFD" fill-rule="evenodd" transform="matrix(1.00029 0 0 1 439.281 -482.002)"/><path d="M2.51755 635.169C0.399611 636.847 0 639.937 1.61176 642.108 3.25017 644.293 6.28721 644.706 8.40515 643.041 10.5231 641.376 10.9227 638.272 9.29762 636.074 7.67253 633.93 4.63549 633.503 2.51755 635.169Z" fill="#008BFD" fill-rule="evenodd" transform="matrix(1.00029 0 0 1 426.422 -489.148)"/><text fill="#008BFD" font-family="Calibri,Calibri_MSFontService,sans-serif" font-weight="400" font-size="10" transform="matrix(1.33242 0 0 1.33204 415.489 186)">Web app</text><path d="M4.82197 631.545C1.75829 632.291 0 635.688 0.879144 639.085 1.75829 642.495 4.82197 644.706 7.89898 643.973 10.9627 643.227 12.721 639.831 11.8418 636.434 11.1092 632.877 7.89898 630.666 4.82197 631.545Z" fill="#008BFD" fill-rule="evenodd" transform="matrix(1.00029 0 0 1 365.937 -209.589)"/><path d="M16.5306 636.287C15.9445 636.287 15.3584 637.313 14.4792 637.766 13.6001 638.206 12.721 638.938 10.2434 637.766 7.75246 636.58 7.45941 635.542 5.40807 635.542 3.37005 635.542 0 639.245 0 644.706L20.7665 644.706C20.7665 644.706 20.4734 641.016 19.3012 639.085 17.836 636.287 17.1167 636.287 16.5306 636.287Z" fill="#008BFD" fill-rule="evenodd" transform="matrix(1.00029 0 0 1 360.805 -200.982)"/><path d="M6.35382 630.839 0.865824 630.839C0.439572 630.839 0 631.279 0 631.719L0 635.515C0 635.954 0.439572 636.394 1.01235 636.394L2.0247 636.394 2.0247 643.254C2.0247 644.12 2.59747 644.706 3.31677 644.706 4.03607 644.706 4.62217 644.12 4.62217 643.401 4.76869 643.401 4.9019 643.401 4.9019 643.401 4.9019 643.401 4.9019 642.668 4.9019 642.521 4.9019 642.228 5.34147 642.082 5.34147 642.082 5.34147 642.082 5.34147 641.642 5.34147 641.642 4.9019 641.496 4.62217 641.203 4.62217 641.056L4.62217 640.63C4.76869 640.483 4.9019 640.337 4.9019 640.337 5.04842 640.19 5.34147 639.604 5.34147 639.604 5.34147 639.604 4.9019 639.018 4.9019 638.872 4.76869 638.725 4.76869 638.432 4.62217 638.285L4.62217 637.992C4.76869 637.273 5.63452 636.541 5.63452 636.541L6.35382 636.541C6.78007 636.541 7.21964 636.101 7.21964 635.661L7.21964 631.719C7.21964 631.279 6.92659 630.839 6.35382 630.839ZM3.17025 643.547C3.17025 643.84 3.17025 643.987 2.89052 643.987 2.59747 643.987 2.59747 643.694 2.59747 643.547L2.59747 637.127C2.59747 636.834 2.744 636.687 2.89052 636.687 3.17025 636.687 3.17025 636.98 3.17025 637.127L3.17025 643.547ZM3.60982 633.184C3.17025 633.184 2.744 632.744 2.744 632.305 2.744 631.865 3.17025 631.425 3.60982 631.425 4.03607 631.425 4.47564 631.865 4.47564 632.305 4.47564 632.744 4.1826 633.184 3.60982 633.184Z" stroke="#808080" stroke-width="0.999028" stroke-linecap="round" stroke-linejoin="round" stroke-miterlimit="3" fill="#008BFD" fill-rule="evenodd" transform="matrix(1.00029 0 0 1 372.861 -202.127)"/><path d="M0.293048 644.706C0.146524 644.706 0 644.559 0 644.413L0 637.766C0 637.606 0.146524 637.46 0.293048 637.46 0.439572 637.46 0.586096 637.606 0.586096 637.766L0.586096 644.559C0.586096 644.706 0.439572 644.706 0.293048 644.706Z" fill="#FFFFFF" fill-rule="evenodd" transform="matrix(1.00029 0 0 1 375.426 -202.887)"/><path d="M1.75497 643.823C1.75497 644.313 1.36211 644.71 0.877487 644.71 0.392864 644.71 2.3557e-08 644.313 2.3557e-08 643.823 2.3557e-08 643.333 0.392864 642.936 0.877487 642.936 1.36211 642.936 1.75497 643.333 1.75497 643.823Z" fill="#FFFFFF" fill-rule="evenodd" transform="matrix(1.00029 0 0 1 375.606 -213.667)"/><path d="M20.1537 604.878-1.03899 620.09 7.0598 644.706 33.2476 644.706 41.3464 620.09 20.1537 604.878Z" stroke="#000000" stroke-width="0.319689" stroke-linecap="round" stroke-linejoin="round" stroke-miterlimit="3" fill="#FFFFFF" fill-rule="evenodd" transform="matrix(1.00029 0 0 1 689.214 -217.029)"/><path d="M4.82197 631.545C1.75829 632.291 0 635.688 0.879144 639.085 1.75829 642.495 4.82197 644.706 7.89898 643.973 10.9627 643.227 12.721 639.831 11.8418 636.434 11.1092 632.877 7.89898 630.666 4.82197 631.545Z" fill="#008BFD" fill-rule="evenodd" transform="matrix(1.00029 0 0 1 704.117 -234.227)"/><path d="M16.5306 636.287C15.9445 636.287 15.3584 637.313 14.4792 637.766 13.6001 638.206 12.721 638.938 10.2434 637.766 7.75246 636.58 7.45941 635.542 5.40807 635.542 3.37005 635.542 0 639.245 0 644.706L20.7665 644.706C20.7665 644.706 20.4734 641.016 19.3012 639.085 17.836 636.287 17.1167 636.287 16.5306 636.287Z" fill="#008BFD" fill-rule="evenodd" transform="matrix(1.00029 0 0 1 698.985 -225.619)"/><path d="M6.35382 630.839 0.865824 630.839C0.439572 630.839 0 631.279 0 631.719L0 635.515C0 635.954 0.439572 636.394 1.01235 636.394L2.0247 636.394 2.0247 643.254C2.0247 644.12 2.59747 644.706 3.31677 644.706 4.03607 644.706 4.62217 644.12 4.62217 643.401 4.76869 643.401 4.9019 643.401 4.9019 643.401 4.9019 643.401 4.9019 642.668 4.9019 642.521 4.9019 642.228 5.34147 642.082 5.34147 642.082 5.34147 642.082 5.34147 641.642 5.34147 641.642 4.9019 641.496 4.62217 641.203 4.62217 641.056L4.62217 640.63C4.76869 640.483 4.9019 640.337 4.9019 640.337 5.04842 640.19 5.34147 639.604 5.34147 639.604 5.34147 639.604 4.9019 639.018 4.9019 638.872 4.76869 638.725 4.76869 638.432 4.62217 638.285L4.62217 637.992C4.76869 637.273 5.63452 636.541 5.63452 636.541L6.35382 636.541C6.78007 636.541 7.21964 636.101 7.21964 635.661L7.21964 631.719C7.21964 631.279 6.92659 630.839 6.35382 630.839ZM3.17025 643.547C3.17025 643.84 3.17025 643.987 2.89052 643.987 2.59747 643.987 2.59747 643.694 2.59747 643.547L2.59747 637.127C2.59747 636.834 2.744 636.687 2.89052 636.687 3.17025 636.687 3.17025 636.98 3.17025 637.127L3.17025 643.547ZM3.60982 633.184C3.17025 633.184 2.744 632.744 2.744 632.305 2.744 631.865 3.17025 631.425 3.60982 631.425 4.03607 631.425 4.47564 631.865 4.47564 632.305 4.47564 632.744 4.1826 633.184 3.60982 633.184Z" stroke="#808080" stroke-width="0.999028" stroke-linecap="round" stroke-linejoin="round" stroke-miterlimit="3" fill="#008BFD" fill-rule="evenodd" transform="matrix(1.00029 0 0 1 711.041 -226.764)"/><path d="M0.293048 644.706C0.146524 644.706 0 644.559 0 644.413L0 637.766C0 637.606 0.146524 637.46 0.293048 637.46 0.439572 637.46 0.586096 637.606 0.586096 637.766L0.586096 644.559C0.586096 644.706 0.439572 644.706 0.293048 644.706Z" fill="#FFFFFF" fill-rule="evenodd" transform="matrix(1.00029 0 0 1 713.606 -227.525)"/><path d="M1.75497 643.823C1.75497 644.313 1.36211 644.71 0.877487 644.71 0.392864 644.71 2.3557e-08 644.313 2.3557e-08 643.823 2.3557e-08 643.333 0.392864 642.936 0.877487 642.936 1.36211 642.936 1.75497 643.333 1.75497 643.823Z" fill="#FFFFFF" fill-rule="evenodd" transform="matrix(1.00029 0 0 1 713.786 -238.304)"/></g></svg>