<?xml version="1.0" encoding="us-ascii" standalone="no"?><svg xmlns="http://www.w3.org/2000/svg" xmlns:xlink="http://www.w3.org/1999/xlink" contentStyleType="text/css" height="1046px" preserveAspectRatio="none" style="width:1000px;height:1046px;background:#FFFFFF;" version="1.1" viewBox="0 0 1000 1046" width="1000px" zoomAndPan="magnify"><defs/><g><text fill="#000000" font-family="sans-serif" font-size="14" font-weight="bold" lengthAdjust="spacing" textLength="330" x="336.25" y="29.5332">Native App SMS MFA with 3P Provider and WAF</text><rect fill="none" height="505.2969" style="stroke:#000000;stroke-width:1.5;" width="983.5" x="10" y="487.7891"/><line style="stroke:#181818;stroke-width:0.5;stroke-dasharray:5.0,5.0;" x1="45" x2="45" y1="76.2188" y2="1010.0859"/><line style="stroke:#181818;stroke-width:0.5;stroke-dasharray:5.0,5.0;" x1="280" x2="280" y1="76.2188" y2="1010.0859"/><line style="stroke:#181818;stroke-width:0.5;stroke-dasharray:5.0,5.0;" x1="389" x2="389" y1="76.2188" y2="1010.0859"/><line style="stroke:#181818;stroke-width:0.5;stroke-dasharray:5.0,5.0;" x1="523.5" x2="523.5" y1="76.2188" y2="1010.0859"/><line style="stroke:#181818;stroke-width:0.5;stroke-dasharray:5.0,5.0;" x1="792.5" x2="792.5" y1="76.2188" y2="1010.0859"/><line style="stroke:#181818;stroke-width:0.5;stroke-dasharray:5.0,5.0;" x1="919.5" x2="919.5" y1="76.2188" y2="1010.0859"/><rect fill="#E2E2F0" height="31.6094" rx="2.5" ry="2.5" style="stroke:#181818;stroke-width:0.5;" width="50" x="20" y="43.6094"/><text fill="#000000" font-family="sans-serif" font-size="14" lengthAdjust="spacing" textLength="36" x="27" y="65.1426">Client</text><rect fill="#E2E2F0" height="31.6094" rx="2.5" ry="2.5" style="stroke:#181818;stroke-width:0.5;" width="50" x="20" y="1009.0859"/><text fill="#000000" font-family="sans-serif" font-size="14" lengthAdjust="spacing" textLength="36" x="27" y="1030.6191">Client</text><rect fill="#E2E2F0" height="31.6094" rx="2.5" ry="2.5" style="stroke:#181818;stroke-width:0.5;" width="78" x="241" y="43.6094"/><text fill="#000000" font-family="sans-serif" font-size="14" lengthAdjust="spacing" textLength="64" x="248" y="65.1426">NativeApp</text><rect fill="#E2E2F0" height="31.6094" rx="2.5" ry="2.5" style="stroke:#181818;stroke-width:0.5;" width="78" x="241" y="1009.0859"/><text fill="#000000" font-family="sans-serif" font-size="14" lengthAdjust="spacing" textLength="64" x="248" y="1030.6191">NativeApp</text><rect fill="#E2E2F0" height="31.6094" rx="2.5" ry="2.5" style="stroke:#181818;stroke-width:0.5;" width="121" x="329" y="43.6094"/><text fill="#000000" font-family="sans-serif" font-size="14" lengthAdjust="spacing" textLength="107" x="336" y="65.1426">3pFpProviderAPI</text><rect fill="#E2E2F0" height="31.6094" rx="2.5" ry="2.5" style="stroke:#181818;stroke-width:0.5;" width="121" x="329" y="1009.0859"/><text fill="#000000" font-family="sans-serif" font-size="14" lengthAdjust="spacing" textLength="107" x="336" y="1030.6191">3pFpProviderAPI</text><rect fill="#E2E2F0" height="31.6094" rx="2.5" ry="2.5" style="stroke:#181818;stroke-width:0.5;" width="45" x="501.5" y="43.6094"/><text fill="#000000" font-family="sans-serif" font-size="14" lengthAdjust="spacing" textLength="31" x="508.5" y="65.1426">WAF</text><rect fill="#E2E2F0" height="31.6094" rx="2.5" ry="2.5" style="stroke:#181818;stroke-width:0.5;" width="45" x="501.5" y="1009.0859"/><text fill="#000000" font-family="sans-serif" font-size="14" lengthAdjust="spacing" textLength="31" x="508.5" y="1030.6191">WAF</text><rect fill="#E2E2F0" height="31.6094" rx="2.5" ry="2.5" style="stroke:#181818;stroke-width:0.5;" width="105" x="740.5" y="43.6094"/><text fill="#000000" font-family="sans-serif" font-size="14" lengthAdjust="spacing" textLength="91" x="747.5" y="65.1426">MicrosoftEntra</text><rect fill="#E2E2F0" height="31.6094" rx="2.5" ry="2.5" style="stroke:#181818;stroke-width:0.5;" width="105" x="740.5" y="1009.0859"/><text fill="#000000" font-family="sans-serif" font-size="14" lengthAdjust="spacing" textLength="91" x="747.5" y="1030.6191">MicrosoftEntra</text><rect fill="#E2E2F0" height="31.6094" rx="2.5" ry="2.5" style="stroke:#181818;stroke-width:0.5;" width="128" x="855.5" y="43.6094"/><text fill="#000000" font-family="sans-serif" font-size="14" lengthAdjust="spacing" textLength="114" x="862.5" y="65.1426">3pFpProviderSDK</text><rect fill="#E2E2F0" height="31.6094" rx="2.5" ry="2.5" style="stroke:#181818;stroke-width:0.5;" width="128" x="855.5" y="1009.0859"/><text fill="#000000" font-family="sans-serif" font-size="14" lengthAdjust="spacing" textLength="114" x="862.5" y="1030.6191">3pFpProviderSDK</text><polygon fill="#181818" points="907.5,104.5703,917.5,108.5703,907.5,112.5703,911.5,108.5703" style="stroke:#181818;stroke-width:1.0;"/><line style="stroke:#181818;stroke-width:1.0;stroke-dasharray:2.0,2.0;" x1="280" x2="913.5" y1="108.5703" y2="108.5703"/><text fill="#000000" font-family="sans-serif" font-size="13" font-weight="bold" lengthAdjust="spacing" textLength="7" x="287" y="103.7139">1</text><text fill="#000000" font-family="sans-serif" font-size="13" lengthAdjust="spacing" textLength="169" x="298" y="103.7139">Initialize 3P FP Provider SDK</text><polygon fill="#181818" points="268,134.9219,278,138.9219,268,142.9219,272,138.9219" style="stroke:#181818;stroke-width:1.0;"/><line style="stroke:#181818;stroke-width:1.0;stroke-dasharray:2.0,2.0;" x1="45" x2="274" y1="138.9219" y2="138.9219"/><text fill="#000000" font-family="sans-serif" font-size="13" font-weight="bold" lengthAdjust="spacing" textLength="7" x="52" y="134.0654">2</text><text fill="#000000" font-family="sans-serif" font-size="13" lengthAdjust="spacing" textLength="77" x="63" y="134.0654">Initate sign-in</text><polygon fill="#181818" points="781,165.2734,791,169.2734,781,173.2734,785,169.2734" style="stroke:#181818;stroke-width:1.0;"/><line style="stroke:#181818;stroke-width:1.0;stroke-dasharray:2.0,2.0;" x1="280" x2="787" y1="169.2734" y2="169.2734"/><text fill="#000000" font-family="sans-serif" font-size="13" font-weight="bold" lengthAdjust="spacing" textLength="7" x="287" y="164.417">3</text><text fill="#000000" font-family="sans-serif" font-size="13" lengthAdjust="spacing" textLength="42" x="298" y="164.417">/initiate</text><polygon fill="#181818" points="291,195.625,281,199.625,291,203.625,287,199.625" style="stroke:#181818;stroke-width:1.0;"/><line style="stroke:#181818;stroke-width:1.0;stroke-dasharray:2.0,2.0;" x1="285" x2="792" y1="199.625" y2="199.625"/><text fill="#000000" font-family="sans-serif" font-size="13" font-weight="bold" lengthAdjust="spacing" textLength="7" x="297" y="194.7686">4</text><text fill="#000000" font-family="sans-serif" font-size="13" lengthAdjust="spacing" textLength="151" x="308" y="194.7686">Return continuation_token</text><polygon fill="#181818" points="781,225.9766,791,229.9766,781,233.9766,785,229.9766" style="stroke:#181818;stroke-width:1.0;"/><line style="stroke:#181818;stroke-width:1.0;" x1="280" x2="787" y1="229.9766" y2="229.9766"/><text fill="#000000" font-family="sans-serif" font-size="13" font-weight="bold" lengthAdjust="spacing" textLength="7" x="287" y="225.1201">5</text><text fill="#000000" font-family="sans-serif" font-size="13" lengthAdjust="spacing" textLength="59" x="298" y="225.1201">/challenge</text><polygon fill="#181818" points="291,256.3281,281,260.3281,291,264.3281,287,260.3281" style="stroke:#181818;stroke-width:1.0;"/><line style="stroke:#181818;stroke-width:1.0;stroke-dasharray:2.0,2.0;" x1="285" x2="792" y1="260.3281" y2="260.3281"/><text fill="#000000" font-family="sans-serif" font-size="13" font-weight="bold" lengthAdjust="spacing" textLength="7" x="297" y="255.4717">6</text><text fill="#000000" font-family="sans-serif" font-size="13" lengthAdjust="spacing" textLength="269" x="308" y="255.4717">returns continuation_token and challenge_type</text><polygon fill="#181818" points="781,286.6797,791,290.6797,781,294.6797,785,290.6797" style="stroke:#181818;stroke-width:1.0;"/><line style="stroke:#181818;stroke-width:1.0;" x1="280" x2="787" y1="290.6797" y2="290.6797"/><text fill="#000000" font-family="sans-serif" font-size="13" font-weight="bold" lengthAdjust="spacing" textLength="7" x="287" y="285.8232">7</text><text fill="#000000" font-family="sans-serif" font-size="13" lengthAdjust="spacing" textLength="36" x="298" y="285.8232">/token</text><polygon fill="#181818" points="291,317.0313,281,321.0313,291,325.0313,287,321.0313" style="stroke:#181818;stroke-width:1.0;"/><line style="stroke:#181818;stroke-width:1.0;stroke-dasharray:2.0,2.0;" x1="285" x2="792" y1="321.0313" y2="321.0313"/><text fill="#000000" font-family="sans-serif" font-size="13" font-weight="bold" lengthAdjust="spacing" textLength="7" x="297" y="316.1748">8</text><text fill="#000000" font-family="sans-serif" font-size="13" lengthAdjust="spacing" textLength="256" x="308" y="316.1748">returns continuation_token with mfa interrupt</text><polygon fill="#181818" points="268,347.3828,278,351.3828,268,355.3828,272,351.3828" style="stroke:#181818;stroke-width:1.0;"/><line style="stroke:#181818;stroke-width:1.0;stroke-dasharray:2.0,2.0;" x1="45" x2="274" y1="351.3828" y2="351.3828"/><text fill="#000000" font-family="sans-serif" font-size="13" font-weight="bold" lengthAdjust="spacing" textLength="7" x="52" y="346.5264">9</text><text fill="#000000" font-family="sans-serif" font-size="13" lengthAdjust="spacing" textLength="93" x="63" y="346.5264">Start SMS MFA</text><polygon fill="#181818" points="781,377.7344,791,381.7344,781,385.7344,785,381.7344" style="stroke:#181818;stroke-width:1.0;"/><line style="stroke:#181818;stroke-width:1.0;" x1="280" x2="787" y1="381.7344" y2="381.7344"/><text fill="#000000" font-family="sans-serif" font-size="13" font-weight="bold" lengthAdjust="spacing" textLength="14" x="287" y="376.8779">10</text><text fill="#000000" font-family="sans-serif" font-size="13" lengthAdjust="spacing" textLength="61" x="305" y="376.8779">/introspect</text><polygon fill="#181818" points="291,408.0859,281,412.0859,291,416.0859,287,412.0859" style="stroke:#181818;stroke-width:1.0;"/><line style="stroke:#181818;stroke-width:1.0;stroke-dasharray:2.0,2.0;" x1="285" x2="792" y1="412.0859" y2="412.0859"/><text fill="#000000" font-family="sans-serif" font-size="13" font-weight="bold" lengthAdjust="spacing" textLength="14" x="297" y="407.2295">11</text><text fill="#000000" font-family="sans-serif" font-size="13" lengthAdjust="spacing" textLength="284" x="315" y="407.2295">returns continuation_token and challenge method</text><polygon fill="#181818" points="907.5,438.4375,917.5,442.4375,907.5,446.4375,911.5,442.4375" style="stroke:#181818;stroke-width:1.0;"/><line style="stroke:#181818;stroke-width:1.0;stroke-dasharray:2.0,2.0;" x1="280" x2="913.5" y1="442.4375" y2="442.4375"/><text fill="#000000" font-family="sans-serif" font-size="13" font-weight="bold" lengthAdjust="spacing" textLength="14" x="287" y="437.5811">12</text><text fill="#000000" font-family="sans-serif" font-size="13" lengthAdjust="spacing" textLength="125" x="305" y="437.5811">Trigger risk evalaution</text><polygon fill="#181818" points="781,468.7891,791,472.7891,781,476.7891,785,472.7891" style="stroke:#181818;stroke-width:1.0;"/><line style="stroke:#181818;stroke-width:1.0;stroke-dasharray:2.0,2.0;" x1="524" x2="787" y1="472.7891" y2="472.7891"/><text fill="#000000" font-family="sans-serif" font-size="13" font-weight="bold" lengthAdjust="spacing" textLength="14" x="531" y="467.9326">13</text><text fill="#000000" font-family="sans-serif" font-size="13" lengthAdjust="spacing" textLength="227" x="549" y="467.9326">Risk decision (Allow, Block, Challenge)</text><path d="M10,487.7891 L71,487.7891 L71,496.1406 L61,506.1406 L10,506.1406 L10,487.7891 " fill="#EEEEEE" style="stroke:#000000;stroke-width:1.5;"/><rect fill="none" height="505.2969" style="stroke:#000000;stroke-width:1.5;" width="983.5" x="10" y="487.7891"/><text fill="#000000" font-family="sans-serif" font-size="13" font-weight="bold" lengthAdjust="spacing" textLength="16" x="25" y="502.2842">alt</text><text fill="#000000" font-family="sans-serif" font-size="11" font-weight="bold" lengthAdjust="spacing" textLength="116" x="86" y="501.208">[Risk decision:Allow]</text><polygon fill="#181818" points="291,524.4922,281,528.4922,291,532.4922,287,528.4922" style="stroke:#181818;stroke-width:1.0;"/><line style="stroke:#181818;stroke-width:1.0;stroke-dasharray:2.0,2.0;" x1="285" x2="792" y1="528.4922" y2="528.4922"/><text fill="#000000" font-family="sans-serif" font-size="13" font-weight="bold" lengthAdjust="spacing" textLength="14" x="297" y="523.6357">14</text><text fill="#000000" font-family="sans-serif" font-size="13" lengthAdjust="spacing" textLength="145" x="315" y="523.6357">Return SMS OTP to user</text><polygon fill="#181818" points="781,554.8438,791,558.8438,781,562.8438,785,558.8438" style="stroke:#181818;stroke-width:1.0;"/><line style="stroke:#181818;stroke-width:1.0;" x1="280" x2="787" y1="558.8438" y2="558.8438"/><text fill="#000000" font-family="sans-serif" font-size="13" font-weight="bold" lengthAdjust="spacing" textLength="14" x="287" y="553.9873">15</text><text fill="#000000" font-family="sans-serif" font-size="13" lengthAdjust="spacing" textLength="154" x="305" y="553.9873">/token with OTP submitted</text><polygon fill="#181818" points="291,585.1953,281,589.1953,291,593.1953,287,589.1953" style="stroke:#181818;stroke-width:1.0;"/><line style="stroke:#181818;stroke-width:1.0;stroke-dasharray:2.0,2.0;" x1="285" x2="792" y1="589.1953" y2="589.1953"/><text fill="#000000" font-family="sans-serif" font-size="13" font-weight="bold" lengthAdjust="spacing" textLength="14" x="297" y="584.3389">16</text><text fill="#000000" font-family="sans-serif" font-size="13" lengthAdjust="spacing" textLength="173" x="315" y="584.3389">HTTP 200 sucess with tokens</text><polygon fill="#181818" points="56,615.5469,46,619.5469,56,623.5469,52,619.5469" style="stroke:#181818;stroke-width:1.0;"/><line style="stroke:#181818;stroke-width:1.0;" x1="50" x2="279" y1="619.5469" y2="619.5469"/><text fill="#000000" font-family="sans-serif" font-size="13" font-weight="bold" lengthAdjust="spacing" textLength="14" x="62" y="614.6904">17</text><text fill="#000000" font-family="sans-serif" font-size="13" lengthAdjust="spacing" textLength="93" x="80" y="614.6904">Auth Completed</text><line style="stroke:#000000;stroke-width:1.0;stroke-dasharray:2.0,2.0;" x1="10" x2="993.5" y1="628.5469" y2="628.5469"/><text fill="#000000" font-family="sans-serif" font-size="11" font-weight="bold" lengthAdjust="spacing" textLength="115" x="15" y="639.9658">[Risk decision:Block]</text><polygon fill="#181818" points="291,661.7344,281,665.7344,291,669.7344,287,665.7344" style="stroke:#181818;stroke-width:1.0;"/><line style="stroke:#181818;stroke-width:1.0;stroke-dasharray:2.0,2.0;" x1="285" x2="792" y1="665.7344" y2="665.7344"/><text fill="#000000" font-family="sans-serif" font-size="13" font-weight="bold" lengthAdjust="spacing" textLength="14" x="297" y="660.8779">18</text><text fill="#000000" font-family="sans-serif" font-size="13" lengthAdjust="spacing" textLength="89" x="315" y="660.8779">Sign-in blocked</text><polygon fill="#181818" points="56,692.0859,46,696.0859,56,700.0859,52,696.0859" style="stroke:#181818;stroke-width:1.0;"/><line style="stroke:#181818;stroke-width:1.0;" x1="50" x2="279" y1="696.0859" y2="696.0859"/><text fill="#000000" font-family="sans-serif" font-size="13" font-weight="bold" lengthAdjust="spacing" textLength="14" x="62" y="691.2295">19</text><text fill="#000000" font-family="sans-serif" font-size="13" lengthAdjust="spacing" textLength="74" x="80" y="691.2295">Sign-in failed</text><line style="stroke:#000000;stroke-width:1.0;stroke-dasharray:2.0,2.0;" x1="10" x2="993.5" y1="705.0859" y2="705.0859"/><text fill="#000000" font-family="sans-serif" font-size="11" font-weight="bold" lengthAdjust="spacing" textLength="143" x="15" y="716.5049">[Risk decision: Challenge]</text><polygon fill="#181818" points="291,738.2734,281,742.2734,291,746.2734,287,742.2734" style="stroke:#181818;stroke-width:1.0;"/><line style="stroke:#181818;stroke-width:1.0;stroke-dasharray:2.0,2.0;" x1="285" x2="918.5" y1="742.2734" y2="742.2734"/><text fill="#000000" font-family="sans-serif" font-size="13" font-weight="bold" lengthAdjust="spacing" textLength="14" x="297" y="737.417">20</text><text fill="#000000" font-family="sans-serif" font-size="13" lengthAdjust="spacing" textLength="97" x="315" y="737.417">Return challenge</text><polygon fill="#181818" points="268,768.625,278,772.625,268,776.625,272,772.625" style="stroke:#181818;stroke-width:1.0;"/><line style="stroke:#181818;stroke-width:1.0;stroke-dasharray:2.0,2.0;" x1="45" x2="274" y1="772.625" y2="772.625"/><text fill="#000000" font-family="sans-serif" font-size="13" font-weight="bold" lengthAdjust="spacing" textLength="14" x="52" y="767.7686">21</text><text fill="#000000" font-family="sans-serif" font-size="13" lengthAdjust="spacing" textLength="193" x="70" y="767.7686">User submits challenge response</text><polygon fill="#181818" points="512,798.9766,522,802.9766,512,806.9766,516,802.9766" style="stroke:#181818;stroke-width:1.0;"/><line style="stroke:#181818;stroke-width:1.0;stroke-dasharray:2.0,2.0;" x1="280" x2="518" y1="802.9766" y2="802.9766"/><text fill="#000000" font-family="sans-serif" font-size="13" font-weight="bold" lengthAdjust="spacing" textLength="14" x="287" y="798.1201">22</text><text fill="#000000" font-family="sans-serif" font-size="13" lengthAdjust="spacing" textLength="202" x="305" y="798.1201">/challenge with challenge response</text><polygon fill="#181818" points="907.5,829.3281,917.5,833.3281,907.5,837.3281,911.5,833.3281" style="stroke:#181818;stroke-width:1.0;"/><line style="stroke:#181818;stroke-width:1.0;stroke-dasharray:2.0,2.0;" x1="524" x2="913.5" y1="833.3281" y2="833.3281"/><text fill="#000000" font-family="sans-serif" font-size="13" font-weight="bold" lengthAdjust="spacing" textLength="14" x="531" y="828.4717">23</text><text fill="#000000" font-family="sans-serif" font-size="13" lengthAdjust="spacing" textLength="270" x="549" y="828.4717">Consult 3P FP Provider SDK for risk evaluation</text><polygon fill="#181818" points="535,859.6797,525,863.6797,535,867.6797,531,863.6797" style="stroke:#181818;stroke-width:1.0;"/><line style="stroke:#181818;stroke-width:1.0;stroke-dasharray:2.0,2.0;" x1="529" x2="918.5" y1="863.6797" y2="863.6797"/><text fill="#000000" font-family="sans-serif" font-size="13" font-weight="bold" lengthAdjust="spacing" textLength="14" x="541" y="858.8232">24</text><text fill="#000000" font-family="sans-serif" font-size="13" lengthAdjust="spacing" textLength="158" x="559" y="858.8232">Return risk decision (Allow)</text><polygon fill="#181818" points="291,890.0313,281,894.0313,291,898.0313,287,894.0313" style="stroke:#181818;stroke-width:1.0;"/><line style="stroke:#181818;stroke-width:1.0;stroke-dasharray:2.0,2.0;" x1="285" x2="792" y1="894.0313" y2="894.0313"/><text fill="#000000" font-family="sans-serif" font-size="13" font-weight="bold" lengthAdjust="spacing" textLength="14" x="297" y="889.1748">25</text><text fill="#000000" font-family="sans-serif" font-size="13" lengthAdjust="spacing" textLength="145" x="315" y="889.1748">Return SMS OTP to user</text><polygon fill="#181818" points="781,920.3828,791,924.3828,781,928.3828,785,924.3828" style="stroke:#181818;stroke-width:1.0;"/><line style="stroke:#181818;stroke-width:1.0;" x1="280" x2="787" y1="924.3828" y2="924.3828"/><text fill="#000000" font-family="sans-serif" font-size="13" font-weight="bold" lengthAdjust="spacing" textLength="14" x="287" y="919.5264">26</text><text fill="#000000" font-family="sans-serif" font-size="13" lengthAdjust="spacing" textLength="154" x="305" y="919.5264">/token with OTP submitted</text><polygon fill="#181818" points="291,950.7344,281,954.7344,291,958.7344,287,954.7344" style="stroke:#181818;stroke-width:1.0;"/><line style="stroke:#181818;stroke-width:1.0;stroke-dasharray:2.0,2.0;" x1="285" x2="792" y1="954.7344" y2="954.7344"/><text fill="#000000" font-family="sans-serif" font-size="13" font-weight="bold" lengthAdjust="spacing" textLength="14" x="297" y="949.8779">27</text><text fill="#000000" font-family="sans-serif" font-size="13" lengthAdjust="spacing" textLength="173" x="315" y="949.8779">HTTP 200 sucess with tokens</text><polygon fill="#181818" points="56,981.0859,46,985.0859,56,989.0859,52,985.0859" style="stroke:#181818;stroke-width:1.0;"/><line style="stroke:#181818;stroke-width:1.0;" x1="50" x2="279" y1="985.0859" y2="985.0859"/><text fill="#000000" font-family="sans-serif" font-size="13" font-weight="bold" lengthAdjust="spacing" textLength="14" x="62" y="980.2295">28</text><text fill="#000000" font-family="sans-serif" font-size="13" lengthAdjust="spacing" textLength="93" x="80" y="980.2295">Auth Completed</text><!--SRC=[tLHDRzim3BtxL_2u0WrQhBSS1dZfWXL3jg39i6EXs4n2H9O4YKgn_Vf9Lfp5ZjqKGq_rKUHxZn-F5fwryjKARSR44k6xODeZvCR0OhQ0sJI7P-8jtCrXRlMUIhGWL0c_ycbcX6Kgo0Z5C964YbjFYIemjLxlpDGqJFdyeHNhaiweiDhfDNzHRCKWpUB-MtOKWz7eKpSwXWT5J4BI7uoTJ4-QYU0iLLz3ZqG991Z1qKQDI7KqsiN16E26QXN6h1DhyORCHsHl5HHQCIaV0beziTvXIw97uQRO2YbHRIugs5h1zKZKsploFF5lWvTKKsd_hrWRg5eB8CLehJSyCF05XmqtlhjKLI0BBmOBVgjXG8MyrUNBNWfyIqkRJR2E9RS3t0ifVAJCWdtxdV4O4qiio8Kq-91BgP-luRFKnUuQ9etyLIOajtF7TMe6uNkfnwEZukX-BEV06hmBDns1hrbkMb54Eh-gY1dBYw81_7KP41zlRmEgGESIIqtepgNJoiUG-v0qqPMH66LGEkmqNG_c5Kqlqbt2AkOVAkwLR1BNWcI_vByjr2pTdGyTS0lKx-cVOG-7gReJgrbqHYk7tQ83EDhezDRJM0UWZUVENJe9EJuOwln_1sjzOjvq3uDjfseE3TiU8r-zRtkgyYy0]--></g></svg>