<?xml version="1.0" encoding="us-ascii" standalone="no"?><svg xmlns="http://www.w3.org/2000/svg" xmlns:xlink="http://www.w3.org/1999/xlink" contentStyleType="text/css" height="1077px" preserveAspectRatio="none" style="width:1141px;height:1077px;background:#FFFFFF;" version="1.1" viewBox="0 0 1141 1077" width="1141px" zoomAndPan="magnify"><defs/><g><text fill="#000000" font-family="sans-serif" font-size="14" font-weight="bold" lengthAdjust="spacing" textLength="330" x="406.75" y="29.5332">Native App SMS MFA with 3P Provider and WAF</text><rect fill="none" height="505.2969" style="stroke:#000000;stroke-width:1.5;" width="1124.5" x="10" y="518.1406"/><line style="stroke:#181818;stroke-width:0.5;stroke-dasharray:5.0,5.0;" x1="41" x2="41" y1="76.2188" y2="1040.4375"/><line style="stroke:#181818;stroke-width:0.5;stroke-dasharray:5.0,5.0;" x1="276.5" x2="276.5" y1="76.2188" y2="1040.4375"/><line style="stroke:#181818;stroke-width:0.5;stroke-dasharray:5.0,5.0;" x1="454.5" x2="454.5" y1="76.2188" y2="1040.4375"/><line style="stroke:#181818;stroke-width:0.5;stroke-dasharray:5.0,5.0;" x1="556.5" x2="556.5" y1="76.2188" y2="1040.4375"/><line style="stroke:#181818;stroke-width:0.5;stroke-dasharray:5.0,5.0;" x1="825.5" x2="825.5" y1="76.2188" y2="1040.4375"/><line style="stroke:#181818;stroke-width:0.5;stroke-dasharray:5.0,5.0;" x1="1007.5" x2="1007.5" y1="76.2188" y2="1040.4375"/><rect fill="#E2E2F0" height="31.6094" rx="2.5" ry="2.5" style="stroke:#181818;stroke-width:0.5;" width="43" x="20" y="43.6094"/><text fill="#000000" font-family="sans-serif" font-size="14" lengthAdjust="spacing" textLength="29" x="27" y="65.1426">User</text><rect fill="#E2E2F0" height="31.6094" rx="2.5" ry="2.5" style="stroke:#181818;stroke-width:0.5;" width="43" x="20" y="1039.4375"/><text fill="#000000" font-family="sans-serif" font-size="14" lengthAdjust="spacing" textLength="29" x="27" y="1060.9707">User</text><rect fill="#E2E2F0" height="31.6094" rx="2.5" ry="2.5" style="stroke:#181818;stroke-width:0.5;" width="176" x="188.5" y="43.6094"/><text fill="#000000" font-family="sans-serif" font-size="14" lengthAdjust="spacing" textLength="162" x="195.5" y="65.1426">Native Authentication App</text><rect fill="#E2E2F0" height="31.6094" rx="2.5" ry="2.5" style="stroke:#181818;stroke-width:0.5;" width="176" x="188.5" y="1039.4375"/><text fill="#000000" font-family="sans-serif" font-size="14" lengthAdjust="spacing" textLength="162" x="195.5" y="1060.9707">Native Authentication App</text><rect fill="#E2E2F0" height="31.6094" rx="2.5" ry="2.5" style="stroke:#181818;stroke-width:0.5;" width="140" x="384.5" y="43.6094"/><text fill="#000000" font-family="sans-serif" font-size="14" lengthAdjust="spacing" textLength="126" x="391.5" y="65.1426">Microsoft Graph API</text><rect fill="#E2E2F0" height="31.6094" rx="2.5" ry="2.5" style="stroke:#181818;stroke-width:0.5;" width="140" x="384.5" y="1039.4375"/><text fill="#000000" font-family="sans-serif" font-size="14" lengthAdjust="spacing" textLength="126" x="391.5" y="1060.9707">Microsoft Graph API</text><rect fill="#E2E2F0" height="31.6094" rx="2.5" ry="2.5" style="stroke:#181818;stroke-width:0.5;" width="45" x="534.5" y="43.6094"/><text fill="#000000" font-family="sans-serif" font-size="14" lengthAdjust="spacing" textLength="31" x="541.5" y="65.1426">WAF</text><rect fill="#E2E2F0" height="31.6094" rx="2.5" ry="2.5" style="stroke:#181818;stroke-width:0.5;" width="45" x="534.5" y="1039.4375"/><text fill="#000000" font-family="sans-serif" font-size="14" lengthAdjust="spacing" textLength="31" x="541.5" y="1060.9707">WAF</text><rect fill="#E2E2F0" height="31.6094" rx="2.5" ry="2.5" style="stroke:#181818;stroke-width:0.5;" width="109" x="771.5" y="43.6094"/><text fill="#000000" font-family="sans-serif" font-size="14" lengthAdjust="spacing" textLength="95" x="778.5" y="65.1426">Microsoft Entra</text><rect fill="#E2E2F0" height="31.6094" rx="2.5" ry="2.5" style="stroke:#181818;stroke-width:0.5;" width="109" x="771.5" y="1039.4375"/><text fill="#000000" font-family="sans-serif" font-size="14" lengthAdjust="spacing" textLength="95" x="778.5" y="1060.9707">Microsoft Entra</text><rect fill="#E2E2F0" height="31.6094" rx="2.5" ry="2.5" style="stroke:#181818;stroke-width:0.5;" width="234" x="890.5" y="43.6094"/><text fill="#000000" font-family="sans-serif" font-size="14" lengthAdjust="spacing" textLength="220" x="897.5" y="65.1426">3P[Third-party] Protection Provider</text><rect fill="#E2E2F0" height="31.6094" rx="2.5" ry="2.5" style="stroke:#181818;stroke-width:0.5;" width="234" x="890.5" y="1039.4375"/><text fill="#000000" font-family="sans-serif" font-size="14" lengthAdjust="spacing" textLength="220" x="897.5" y="1060.9707">3P[Third-party] Protection Provider</text><polygon fill="#181818" points="995.5,104.5703,1005.5,108.5703,995.5,112.5703,999.5,108.5703" style="stroke:#181818;stroke-width:1.0;"/><line style="stroke:#181818;stroke-width:1.0;stroke-dasharray:2.0,2.0;" x1="276.5" x2="1001.5" y1="108.5703" y2="108.5703"/><text fill="#000000" font-family="sans-serif" font-size="13" font-weight="bold" lengthAdjust="spacing" textLength="7" x="283.5" y="103.7139">1</text><text fill="#000000" font-family="sans-serif" font-size="13" lengthAdjust="spacing" textLength="138" x="294.5" y="103.7139">Initialize 3P FP Provider</text><polygon fill="#181818" points="264.5,134.9219,274.5,138.9219,264.5,142.9219,268.5,138.9219" style="stroke:#181818;stroke-width:1.0;"/><line style="stroke:#181818;stroke-width:1.0;stroke-dasharray:2.0,2.0;" x1="41.5" x2="270.5" y1="138.9219" y2="138.9219"/><text fill="#000000" font-family="sans-serif" font-size="13" font-weight="bold" lengthAdjust="spacing" textLength="7" x="48.5" y="134.0654">2</text><text fill="#000000" font-family="sans-serif" font-size="13" lengthAdjust="spacing" textLength="77" x="59.5" y="134.0654">Initate sign-in</text><polygon fill="#181818" points="814,165.2734,824,169.2734,814,173.2734,818,169.2734" style="stroke:#181818;stroke-width:1.0;"/><line style="stroke:#181818;stroke-width:1.0;stroke-dasharray:2.0,2.0;" x1="276.5" x2="820" y1="169.2734" y2="169.2734"/><text fill="#000000" font-family="sans-serif" font-size="13" font-weight="bold" lengthAdjust="spacing" textLength="7" x="283.5" y="164.417">3</text><text fill="#000000" font-family="sans-serif" font-size="13" lengthAdjust="spacing" textLength="42" x="294.5" y="164.417">/initiate</text><polygon fill="#181818" points="287.5,195.625,277.5,199.625,287.5,203.625,283.5,199.625" style="stroke:#181818;stroke-width:1.0;"/><line style="stroke:#181818;stroke-width:1.0;stroke-dasharray:2.0,2.0;" x1="281.5" x2="825" y1="199.625" y2="199.625"/><text fill="#000000" font-family="sans-serif" font-size="13" font-weight="bold" lengthAdjust="spacing" textLength="7" x="293.5" y="194.7686">4</text><text fill="#000000" font-family="sans-serif" font-size="13" lengthAdjust="spacing" textLength="151" x="304.5" y="194.7686">Return continuation_token</text><polygon fill="#181818" points="814,225.9766,824,229.9766,814,233.9766,818,229.9766" style="stroke:#181818;stroke-width:1.0;"/><line style="stroke:#181818;stroke-width:1.0;" x1="276.5" x2="820" y1="229.9766" y2="229.9766"/><text fill="#000000" font-family="sans-serif" font-size="13" font-weight="bold" lengthAdjust="spacing" textLength="7" x="283.5" y="225.1201">5</text><text fill="#000000" font-family="sans-serif" font-size="13" lengthAdjust="spacing" textLength="59" x="294.5" y="225.1201">/challenge</text><polygon fill="#181818" points="287.5,256.3281,277.5,260.3281,287.5,264.3281,283.5,260.3281" style="stroke:#181818;stroke-width:1.0;"/><line style="stroke:#181818;stroke-width:1.0;stroke-dasharray:2.0,2.0;" x1="281.5" x2="825" y1="260.3281" y2="260.3281"/><text fill="#000000" font-family="sans-serif" font-size="13" font-weight="bold" lengthAdjust="spacing" textLength="7" x="293.5" y="255.4717">6</text><text fill="#000000" font-family="sans-serif" font-size="13" lengthAdjust="spacing" textLength="269" x="304.5" y="255.4717">returns continuation_token and challenge_type</text><polygon fill="#181818" points="814,286.6797,824,290.6797,814,294.6797,818,290.6797" style="stroke:#181818;stroke-width:1.0;"/><line style="stroke:#181818;stroke-width:1.0;" x1="276.5" x2="820" y1="290.6797" y2="290.6797"/><text fill="#000000" font-family="sans-serif" font-size="13" font-weight="bold" lengthAdjust="spacing" textLength="7" x="283.5" y="285.8232">7</text><text fill="#000000" font-family="sans-serif" font-size="13" lengthAdjust="spacing" textLength="36" x="294.5" y="285.8232">/token</text><polygon fill="#181818" points="287.5,317.0313,277.5,321.0313,287.5,325.0313,283.5,321.0313" style="stroke:#181818;stroke-width:1.0;"/><line style="stroke:#181818;stroke-width:1.0;stroke-dasharray:2.0,2.0;" x1="281.5" x2="825" y1="321.0313" y2="321.0313"/><text fill="#000000" font-family="sans-serif" font-size="13" font-weight="bold" lengthAdjust="spacing" textLength="7" x="293.5" y="316.1748">8</text><text fill="#000000" font-family="sans-serif" font-size="13" lengthAdjust="spacing" textLength="256" x="304.5" y="316.1748">returns continuation_token with mfa interrupt</text><polygon fill="#181818" points="264.5,347.3828,274.5,351.3828,264.5,355.3828,268.5,351.3828" style="stroke:#181818;stroke-width:1.0;"/><line style="stroke:#181818;stroke-width:1.0;stroke-dasharray:2.0,2.0;" x1="41.5" x2="270.5" y1="351.3828" y2="351.3828"/><text fill="#000000" font-family="sans-serif" font-size="13" font-weight="bold" lengthAdjust="spacing" textLength="7" x="48.5" y="346.5264">9</text><text fill="#000000" font-family="sans-serif" font-size="13" lengthAdjust="spacing" textLength="93" x="59.5" y="346.5264">Start SMS MFA</text><polygon fill="#181818" points="814,377.7344,824,381.7344,814,385.7344,818,381.7344" style="stroke:#181818;stroke-width:1.0;"/><line style="stroke:#181818;stroke-width:1.0;" x1="276.5" x2="820" y1="381.7344" y2="381.7344"/><text fill="#000000" font-family="sans-serif" font-size="13" font-weight="bold" lengthAdjust="spacing" textLength="14" x="283.5" y="376.8779">10</text><text fill="#000000" font-family="sans-serif" font-size="13" lengthAdjust="spacing" textLength="61" x="301.5" y="376.8779">/introspect</text><polygon fill="#181818" points="287.5,408.0859,277.5,412.0859,287.5,416.0859,283.5,412.0859" style="stroke:#181818;stroke-width:1.0;"/><line style="stroke:#181818;stroke-width:1.0;stroke-dasharray:2.0,2.0;" x1="281.5" x2="825" y1="412.0859" y2="412.0859"/><text fill="#000000" font-family="sans-serif" font-size="13" font-weight="bold" lengthAdjust="spacing" textLength="14" x="293.5" y="407.2295">11</text><text fill="#000000" font-family="sans-serif" font-size="13" lengthAdjust="spacing" textLength="284" x="311.5" y="407.2295">returns continuation_token and challenge method</text><polygon fill="#181818" points="442.5,438.4375,452.5,442.4375,442.5,446.4375,446.5,442.4375" style="stroke:#181818;stroke-width:1.0;"/><line style="stroke:#181818;stroke-width:1.0;stroke-dasharray:2.0,2.0;" x1="276.5" x2="448.5" y1="442.4375" y2="442.4375"/><text fill="#000000" font-family="sans-serif" font-size="13" font-weight="bold" lengthAdjust="spacing" textLength="14" x="283.5" y="437.5811">12</text><text fill="#000000" font-family="sans-serif" font-size="13" lengthAdjust="spacing" textLength="136" x="301.5" y="437.5811">Get user phone number</text><polygon fill="#181818" points="995.5,468.7891,1005.5,472.7891,995.5,476.7891,999.5,472.7891" style="stroke:#181818;stroke-width:1.0;"/><line style="stroke:#181818;stroke-width:1.0;stroke-dasharray:2.0,2.0;" x1="276.5" x2="1001.5" y1="472.7891" y2="472.7891"/><text fill="#000000" font-family="sans-serif" font-size="13" font-weight="bold" lengthAdjust="spacing" textLength="14" x="283.5" y="467.9326">13</text><text fill="#000000" font-family="sans-serif" font-size="13" lengthAdjust="spacing" textLength="125" x="301.5" y="467.9326">Trigger risk evaluation</text><polygon fill="#181818" points="814,499.1406,824,503.1406,814,507.1406,818,503.1406" style="stroke:#181818;stroke-width:1.0;"/><line style="stroke:#181818;stroke-width:1.0;stroke-dasharray:2.0,2.0;" x1="557" x2="820" y1="503.1406" y2="503.1406"/><text fill="#000000" font-family="sans-serif" font-size="13" font-weight="bold" lengthAdjust="spacing" textLength="14" x="564" y="498.2842">14</text><text fill="#000000" font-family="sans-serif" font-size="13" lengthAdjust="spacing" textLength="227" x="582" y="498.2842">Risk decision (Allow, Block, Challenge)</text><path d="M10,518.1406 L71,518.1406 L71,526.4922 L61,536.4922 L10,536.4922 L10,518.1406 " fill="#EEEEEE" style="stroke:#000000;stroke-width:1.5;"/><rect fill="none" height="505.2969" style="stroke:#000000;stroke-width:1.5;" width="1124.5" x="10" y="518.1406"/><text fill="#000000" font-family="sans-serif" font-size="13" font-weight="bold" lengthAdjust="spacing" textLength="16" x="25" y="532.6357">alt</text><text fill="#000000" font-family="sans-serif" font-size="11" font-weight="bold" lengthAdjust="spacing" textLength="116" x="86" y="531.5596">[Risk decision:Allow]</text><polygon fill="#181818" points="287.5,554.8438,277.5,558.8438,287.5,562.8438,283.5,558.8438" style="stroke:#181818;stroke-width:1.0;"/><line style="stroke:#181818;stroke-width:1.0;stroke-dasharray:2.0,2.0;" x1="281.5" x2="825" y1="558.8438" y2="558.8438"/><text fill="#000000" font-family="sans-serif" font-size="13" font-weight="bold" lengthAdjust="spacing" textLength="14" x="293.5" y="553.9873">15</text><text fill="#000000" font-family="sans-serif" font-size="13" lengthAdjust="spacing" textLength="145" x="311.5" y="553.9873">Return SMS OTP to user</text><polygon fill="#181818" points="814,585.1953,824,589.1953,814,593.1953,818,589.1953" style="stroke:#181818;stroke-width:1.0;"/><line style="stroke:#181818;stroke-width:1.0;" x1="276.5" x2="820" y1="589.1953" y2="589.1953"/><text fill="#000000" font-family="sans-serif" font-size="13" font-weight="bold" lengthAdjust="spacing" textLength="14" x="283.5" y="584.3389">16</text><text fill="#000000" font-family="sans-serif" font-size="13" lengthAdjust="spacing" textLength="154" x="301.5" y="584.3389">/token with OTP submitted</text><polygon fill="#181818" points="287.5,615.5469,277.5,619.5469,287.5,623.5469,283.5,619.5469" style="stroke:#181818;stroke-width:1.0;"/><line style="stroke:#181818;stroke-width:1.0;stroke-dasharray:2.0,2.0;" x1="281.5" x2="825" y1="619.5469" y2="619.5469"/><text fill="#000000" font-family="sans-serif" font-size="13" font-weight="bold" lengthAdjust="spacing" textLength="14" x="293.5" y="614.6904">17</text><text fill="#000000" font-family="sans-serif" font-size="13" lengthAdjust="spacing" textLength="173" x="311.5" y="614.6904">HTTP 200 sucess with tokens</text><polygon fill="#181818" points="52.5,645.8984,42.5,649.8984,52.5,653.8984,48.5,649.8984" style="stroke:#181818;stroke-width:1.0;"/><line style="stroke:#181818;stroke-width:1.0;" x1="46.5" x2="275.5" y1="649.8984" y2="649.8984"/><text fill="#000000" font-family="sans-serif" font-size="13" font-weight="bold" lengthAdjust="spacing" textLength="14" x="58.5" y="645.042">18</text><text fill="#000000" font-family="sans-serif" font-size="13" lengthAdjust="spacing" textLength="93" x="76.5" y="645.042">Auth Completed</text><line style="stroke:#000000;stroke-width:1.0;stroke-dasharray:2.0,2.0;" x1="10" x2="1134.5" y1="658.8984" y2="658.8984"/><text fill="#000000" font-family="sans-serif" font-size="11" font-weight="bold" lengthAdjust="spacing" textLength="115" x="15" y="670.3174">[Risk decision:Block]</text><polygon fill="#181818" points="287.5,692.0859,277.5,696.0859,287.5,700.0859,283.5,696.0859" style="stroke:#181818;stroke-width:1.0;"/><line style="stroke:#181818;stroke-width:1.0;stroke-dasharray:2.0,2.0;" x1="281.5" x2="825" y1="696.0859" y2="696.0859"/><text fill="#000000" font-family="sans-serif" font-size="13" font-weight="bold" lengthAdjust="spacing" textLength="14" x="293.5" y="691.2295">19</text><text fill="#000000" font-family="sans-serif" font-size="13" lengthAdjust="spacing" textLength="89" x="311.5" y="691.2295">Sign-in blocked</text><polygon fill="#181818" points="52.5,722.4375,42.5,726.4375,52.5,730.4375,48.5,726.4375" style="stroke:#181818;stroke-width:1.0;"/><line style="stroke:#181818;stroke-width:1.0;" x1="46.5" x2="275.5" y1="726.4375" y2="726.4375"/><text fill="#000000" font-family="sans-serif" font-size="13" font-weight="bold" lengthAdjust="spacing" textLength="14" x="58.5" y="721.5811">20</text><text fill="#000000" font-family="sans-serif" font-size="13" lengthAdjust="spacing" textLength="74" x="76.5" y="721.5811">Sign-in failed</text><line style="stroke:#000000;stroke-width:1.0;stroke-dasharray:2.0,2.0;" x1="10" x2="1134.5" y1="735.4375" y2="735.4375"/><text fill="#000000" font-family="sans-serif" font-size="11" font-weight="bold" lengthAdjust="spacing" textLength="143" x="15" y="746.8564">[Risk decision: Challenge]</text><polygon fill="#181818" points="287.5,768.625,277.5,772.625,287.5,776.625,283.5,772.625" style="stroke:#181818;stroke-width:1.0;"/><line style="stroke:#181818;stroke-width:1.0;stroke-dasharray:2.0,2.0;" x1="281.5" x2="1006.5" y1="772.625" y2="772.625"/><text fill="#000000" font-family="sans-serif" font-size="13" font-weight="bold" lengthAdjust="spacing" textLength="14" x="293.5" y="767.7686">21</text><text fill="#000000" font-family="sans-serif" font-size="13" lengthAdjust="spacing" textLength="97" x="311.5" y="767.7686">Return challenge</text><polygon fill="#181818" points="264.5,798.9766,274.5,802.9766,264.5,806.9766,268.5,802.9766" style="stroke:#181818;stroke-width:1.0;"/><line style="stroke:#181818;stroke-width:1.0;stroke-dasharray:2.0,2.0;" x1="41.5" x2="270.5" y1="802.9766" y2="802.9766"/><text fill="#000000" font-family="sans-serif" font-size="13" font-weight="bold" lengthAdjust="spacing" textLength="14" x="48.5" y="798.1201">22</text><text fill="#000000" font-family="sans-serif" font-size="13" lengthAdjust="spacing" textLength="193" x="66.5" y="798.1201">User submits challenge response</text><polygon fill="#181818" points="545,829.3281,555,833.3281,545,837.3281,549,833.3281" style="stroke:#181818;stroke-width:1.0;"/><line style="stroke:#181818;stroke-width:1.0;stroke-dasharray:2.0,2.0;" x1="276.5" x2="551" y1="833.3281" y2="833.3281"/><text fill="#000000" font-family="sans-serif" font-size="13" font-weight="bold" lengthAdjust="spacing" textLength="14" x="283.5" y="828.4717">23</text><text fill="#000000" font-family="sans-serif" font-size="13" lengthAdjust="spacing" textLength="202" x="301.5" y="828.4717">/challenge with challenge response</text><polygon fill="#181818" points="995.5,859.6797,1005.5,863.6797,995.5,867.6797,999.5,863.6797" style="stroke:#181818;stroke-width:1.0;"/><line style="stroke:#181818;stroke-width:1.0;stroke-dasharray:2.0,2.0;" x1="557" x2="1001.5" y1="863.6797" y2="863.6797"/><text fill="#000000" font-family="sans-serif" font-size="13" font-weight="bold" lengthAdjust="spacing" textLength="14" x="564" y="858.8232">24</text><text fill="#000000" font-family="sans-serif" font-size="13" lengthAdjust="spacing" textLength="239" x="582" y="858.8232">Consult 3P FP Provider for risk evaluation</text><polygon fill="#181818" points="568,890.0313,558,894.0313,568,898.0313,564,894.0313" style="stroke:#181818;stroke-width:1.0;"/><line style="stroke:#181818;stroke-width:1.0;stroke-dasharray:2.0,2.0;" x1="562" x2="1006.5" y1="894.0313" y2="894.0313"/><text fill="#000000" font-family="sans-serif" font-size="13" font-weight="bold" lengthAdjust="spacing" textLength="14" x="574" y="889.1748">25</text><text fill="#000000" font-family="sans-serif" font-size="13" lengthAdjust="spacing" textLength="158" x="592" y="889.1748">Return risk decision (Allow)</text><polygon fill="#181818" points="287.5,920.3828,277.5,924.3828,287.5,928.3828,283.5,924.3828" style="stroke:#181818;stroke-width:1.0;"/><line style="stroke:#181818;stroke-width:1.0;stroke-dasharray:2.0,2.0;" x1="281.5" x2="825" y1="924.3828" y2="924.3828"/><text fill="#000000" font-family="sans-serif" font-size="13" font-weight="bold" lengthAdjust="spacing" textLength="14" x="293.5" y="919.5264">26</text><text fill="#000000" font-family="sans-serif" font-size="13" lengthAdjust="spacing" textLength="145" x="311.5" y="919.5264">Return SMS OTP to user</text><polygon fill="#181818" points="814,950.7344,824,954.7344,814,958.7344,818,954.7344" style="stroke:#181818;stroke-width:1.0;"/><line style="stroke:#181818;stroke-width:1.0;" x1="276.5" x2="820" y1="954.7344" y2="954.7344"/><text fill="#000000" font-family="sans-serif" font-size="13" font-weight="bold" lengthAdjust="spacing" textLength="14" x="283.5" y="949.8779">27</text><text fill="#000000" font-family="sans-serif" font-size="13" lengthAdjust="spacing" textLength="154" x="301.5" y="949.8779">/token with OTP submitted</text><polygon fill="#181818" points="287.5,981.0859,277.5,985.0859,287.5,989.0859,283.5,985.0859" style="stroke:#181818;stroke-width:1.0;"/><line style="stroke:#181818;stroke-width:1.0;stroke-dasharray:2.0,2.0;" x1="281.5" x2="825" y1="985.0859" y2="985.0859"/><text fill="#000000" font-family="sans-serif" font-size="13" font-weight="bold" lengthAdjust="spacing" textLength="14" x="293.5" y="980.2295">28</text><text fill="#000000" font-family="sans-serif" font-size="13" lengthAdjust="spacing" textLength="173" x="311.5" y="980.2295">HTTP 200 sucess with tokens</text><polygon fill="#181818" points="52.5,1011.4375,42.5,1015.4375,52.5,1019.4375,48.5,1015.4375" style="stroke:#181818;stroke-width:1.0;"/><line style="stroke:#181818;stroke-width:1.0;" x1="46.5" x2="275.5" y1="1015.4375" y2="1015.4375"/><text fill="#000000" font-family="sans-serif" font-size="13" font-weight="bold" lengthAdjust="spacing" textLength="14" x="58.5" y="1010.5811">29</text><text fill="#000000" font-family="sans-serif" font-size="13" lengthAdjust="spacing" textLength="93" x="76.5" y="1010.5811">Auth Completed</text><!--SRC=[tLHDRzim3BtxLn0-hK235kijXm5Ui7GzP0kQ33iCHQ7OJ2n4aGI9Jj7z-b5o4jlvQZhiD5yCou-FvEEZH4L6LwiPkeGaAOHlWkGQ8RCM9gC9Z8OPl4WguMuCOsVMia07GXVmCnicLZYIkRH24_pmJD4-IBTC5PMe-PW_ZGx4AGWVtbtuIEREU3Cdk7V2bf2D7z8EOZzZA-AB9YUwwFHk_6jQIbVqmkdhKwYUC8yrR1j9az1ch_VfCZJquK5BaaB9tnW46JQQ9A7_ICMKDKuGWfSBtPEwoRDVCtF2ZOoiXCdXxmqZmnwHAgSXDwobhgAOpsIMk24_pdsJbq8fr8lpt2vo-oFaSTOxacTwjNWsNrtHN-QAHblD1KXDw5nbQK_M2V5qjhuyMmSpy9db4VwJnc65L9hYs1mRjpBVFH9KeMHR6esmsQptkcpgv6B194xw9U1QgBgmX3VWf8iU0xR0NFh0zY5JohnSmsTbykKr3BPzN2L2KHVRZz04-3cfrCvzGVhlqp6GYMt6g3VjKCyrXFbgjf94M9nFnv5Vfmp_U7lB8JbwNrD4DjzE6kpHZrSC3CpAAWpSg3pkzHXrUAl7IRsiC0lWJOsTF5l0N4XrF4-ZT9tiee4VxdY7fBi2yQlMqRVywT1RepqsHND0y4lx3gXLF16qCzU59XrmPCLcwjw3C3U7ldsV57NL6odS4LjV_LTcrSKV]--></g></svg>