<?xml version="1.0" encoding="us-ascii" standalone="no"?><svg xmlns="http://www.w3.org/2000/svg" xmlns:xlink="http://www.w3.org/1999/xlink" contentStyleType="text/css" height="1077px" preserveAspectRatio="none" style="width:985px;height:1077px;background:#FFFFFF;" version="1.1" viewBox="0 0 985 1077" width="985px" zoomAndPan="magnify"><defs/><g><text fill="#000000" font-family="sans-serif" font-size="14" font-weight="bold" lengthAdjust="spacing" textLength="330" x="328.75" y="29.5332">Native App SMS MFA with 3P Provider and WAF</text><rect fill="none" height="505.2969" style="stroke:#000000;stroke-width:1.5;" width="968.5" x="10" y="518.1406"/><line style="stroke:#181818;stroke-width:0.5;stroke-dasharray:5.0,5.0;" x1="45" x2="45" y1="76.2188" y2="1040.4375"/><line style="stroke:#181818;stroke-width:0.5;stroke-dasharray:5.0,5.0;" x1="280" x2="280" y1="76.2188" y2="1040.4375"/><line style="stroke:#181818;stroke-width:0.5;stroke-dasharray:5.0,5.0;" x1="457.5" x2="457.5" y1="76.2188" y2="1040.4375"/><line style="stroke:#181818;stroke-width:0.5;stroke-dasharray:5.0,5.0;" x1="536.5" x2="536.5" y1="76.2188" y2="1040.4375"/><line style="stroke:#181818;stroke-width:0.5;stroke-dasharray:5.0,5.0;" x1="805.5" x2="805.5" y1="76.2188" y2="1040.4375"/><line style="stroke:#181818;stroke-width:0.5;stroke-dasharray:5.0,5.0;" x1="918.5" x2="918.5" y1="76.2188" y2="1040.4375"/><rect fill="#E2E2F0" height="31.6094" rx="2.5" ry="2.5" style="stroke:#181818;stroke-width:0.5;" width="50" x="20" y="43.6094"/><text fill="#000000" font-family="sans-serif" font-size="14" lengthAdjust="spacing" textLength="36" x="27" y="65.1426">Client</text><rect fill="#E2E2F0" height="31.6094" rx="2.5" ry="2.5" style="stroke:#181818;stroke-width:0.5;" width="50" x="20" y="1039.4375"/><text fill="#000000" font-family="sans-serif" font-size="14" lengthAdjust="spacing" textLength="36" x="27" y="1060.9707">Client</text><rect fill="#E2E2F0" height="31.6094" rx="2.5" ry="2.5" style="stroke:#181818;stroke-width:0.5;" width="78" x="241" y="43.6094"/><text fill="#000000" font-family="sans-serif" font-size="14" lengthAdjust="spacing" textLength="64" x="248" y="65.1426">NativeApp</text><rect fill="#E2E2F0" height="31.6094" rx="2.5" ry="2.5" style="stroke:#181818;stroke-width:0.5;" width="78" x="241" y="1039.4375"/><text fill="#000000" font-family="sans-serif" font-size="14" lengthAdjust="spacing" textLength="64" x="248" y="1060.9707">NativeApp</text><rect fill="#E2E2F0" height="31.6094" rx="2.5" ry="2.5" style="stroke:#181818;stroke-width:0.5;" width="93" x="411.5" y="43.6094"/><text fill="#000000" font-family="sans-serif" font-size="14" lengthAdjust="spacing" textLength="79" x="418.5" y="65.1426">MsGraphAPI</text><rect fill="#E2E2F0" height="31.6094" rx="2.5" ry="2.5" style="stroke:#181818;stroke-width:0.5;" width="93" x="411.5" y="1039.4375"/><text fill="#000000" font-family="sans-serif" font-size="14" lengthAdjust="spacing" textLength="79" x="418.5" y="1060.9707">MsGraphAPI</text><rect fill="#E2E2F0" height="31.6094" rx="2.5" ry="2.5" style="stroke:#181818;stroke-width:0.5;" width="45" x="514.5" y="43.6094"/><text fill="#000000" font-family="sans-serif" font-size="14" lengthAdjust="spacing" textLength="31" x="521.5" y="65.1426">WAF</text><rect fill="#E2E2F0" height="31.6094" rx="2.5" ry="2.5" style="stroke:#181818;stroke-width:0.5;" width="45" x="514.5" y="1039.4375"/><text fill="#000000" font-family="sans-serif" font-size="14" lengthAdjust="spacing" textLength="31" x="521.5" y="1060.9707">WAF</text><rect fill="#E2E2F0" height="31.6094" rx="2.5" ry="2.5" style="stroke:#181818;stroke-width:0.5;" width="105" x="753.5" y="43.6094"/><text fill="#000000" font-family="sans-serif" font-size="14" lengthAdjust="spacing" textLength="91" x="760.5" y="65.1426">MicrosoftEntra</text><rect fill="#E2E2F0" height="31.6094" rx="2.5" ry="2.5" style="stroke:#181818;stroke-width:0.5;" width="105" x="753.5" y="1039.4375"/><text fill="#000000" font-family="sans-serif" font-size="14" lengthAdjust="spacing" textLength="91" x="760.5" y="1060.9707">MicrosoftEntra</text><rect fill="#E2E2F0" height="31.6094" rx="2.5" ry="2.5" style="stroke:#181818;stroke-width:0.5;" width="100" x="868.5" y="43.6094"/><text fill="#000000" font-family="sans-serif" font-size="14" lengthAdjust="spacing" textLength="86" x="875.5" y="65.1426">3pFpProvider</text><rect fill="#E2E2F0" height="31.6094" rx="2.5" ry="2.5" style="stroke:#181818;stroke-width:0.5;" width="100" x="868.5" y="1039.4375"/><text fill="#000000" font-family="sans-serif" font-size="14" lengthAdjust="spacing" textLength="86" x="875.5" y="1060.9707">3pFpProvider</text><polygon fill="#181818" points="906.5,104.5703,916.5,108.5703,906.5,112.5703,910.5,108.5703" style="stroke:#181818;stroke-width:1.0;"/><line style="stroke:#181818;stroke-width:1.0;stroke-dasharray:2.0,2.0;" x1="280" x2="912.5" y1="108.5703" y2="108.5703"/><text fill="#000000" font-family="sans-serif" font-size="13" font-weight="bold" lengthAdjust="spacing" textLength="7" x="287" y="103.7139">1</text><text fill="#000000" font-family="sans-serif" font-size="13" lengthAdjust="spacing" textLength="138" x="298" y="103.7139">Initialize 3P FP Provider</text><polygon fill="#181818" points="268,134.9219,278,138.9219,268,142.9219,272,138.9219" style="stroke:#181818;stroke-width:1.0;"/><line style="stroke:#181818;stroke-width:1.0;stroke-dasharray:2.0,2.0;" x1="45" x2="274" y1="138.9219" y2="138.9219"/><text fill="#000000" font-family="sans-serif" font-size="13" font-weight="bold" lengthAdjust="spacing" textLength="7" x="52" y="134.0654">2</text><text fill="#000000" font-family="sans-serif" font-size="13" lengthAdjust="spacing" textLength="77" x="63" y="134.0654">Initate sign-in</text><polygon fill="#181818" points="794,165.2734,804,169.2734,794,173.2734,798,169.2734" style="stroke:#181818;stroke-width:1.0;"/><line style="stroke:#181818;stroke-width:1.0;stroke-dasharray:2.0,2.0;" x1="280" x2="800" y1="169.2734" y2="169.2734"/><text fill="#000000" font-family="sans-serif" font-size="13" font-weight="bold" lengthAdjust="spacing" textLength="7" x="287" y="164.417">3</text><text fill="#000000" font-family="sans-serif" font-size="13" lengthAdjust="spacing" textLength="42" x="298" y="164.417">/initiate</text><polygon fill="#181818" points="291,195.625,281,199.625,291,203.625,287,199.625" style="stroke:#181818;stroke-width:1.0;"/><line style="stroke:#181818;stroke-width:1.0;stroke-dasharray:2.0,2.0;" x1="285" x2="805" y1="199.625" y2="199.625"/><text fill="#000000" font-family="sans-serif" font-size="13" font-weight="bold" lengthAdjust="spacing" textLength="7" x="297" y="194.7686">4</text><text fill="#000000" font-family="sans-serif" font-size="13" lengthAdjust="spacing" textLength="151" x="308" y="194.7686">Return continuation_token</text><polygon fill="#181818" points="794,225.9766,804,229.9766,794,233.9766,798,229.9766" style="stroke:#181818;stroke-width:1.0;"/><line style="stroke:#181818;stroke-width:1.0;" x1="280" x2="800" y1="229.9766" y2="229.9766"/><text fill="#000000" font-family="sans-serif" font-size="13" font-weight="bold" lengthAdjust="spacing" textLength="7" x="287" y="225.1201">5</text><text fill="#000000" font-family="sans-serif" font-size="13" lengthAdjust="spacing" textLength="59" x="298" y="225.1201">/challenge</text><polygon fill="#181818" points="291,256.3281,281,260.3281,291,264.3281,287,260.3281" style="stroke:#181818;stroke-width:1.0;"/><line style="stroke:#181818;stroke-width:1.0;stroke-dasharray:2.0,2.0;" x1="285" x2="805" y1="260.3281" y2="260.3281"/><text fill="#000000" font-family="sans-serif" font-size="13" font-weight="bold" lengthAdjust="spacing" textLength="7" x="297" y="255.4717">6</text><text fill="#000000" font-family="sans-serif" font-size="13" lengthAdjust="spacing" textLength="269" x="308" y="255.4717">returns continuation_token and challenge_type</text><polygon fill="#181818" points="794,286.6797,804,290.6797,794,294.6797,798,290.6797" style="stroke:#181818;stroke-width:1.0;"/><line style="stroke:#181818;stroke-width:1.0;" x1="280" x2="800" y1="290.6797" y2="290.6797"/><text fill="#000000" font-family="sans-serif" font-size="13" font-weight="bold" lengthAdjust="spacing" textLength="7" x="287" y="285.8232">7</text><text fill="#000000" font-family="sans-serif" font-size="13" lengthAdjust="spacing" textLength="36" x="298" y="285.8232">/token</text><polygon fill="#181818" points="291,317.0313,281,321.0313,291,325.0313,287,321.0313" style="stroke:#181818;stroke-width:1.0;"/><line style="stroke:#181818;stroke-width:1.0;stroke-dasharray:2.0,2.0;" x1="285" x2="805" y1="321.0313" y2="321.0313"/><text fill="#000000" font-family="sans-serif" font-size="13" font-weight="bold" lengthAdjust="spacing" textLength="7" x="297" y="316.1748">8</text><text fill="#000000" font-family="sans-serif" font-size="13" lengthAdjust="spacing" textLength="256" x="308" y="316.1748">returns continuation_token with mfa interrupt</text><polygon fill="#181818" points="268,347.3828,278,351.3828,268,355.3828,272,351.3828" style="stroke:#181818;stroke-width:1.0;"/><line style="stroke:#181818;stroke-width:1.0;stroke-dasharray:2.0,2.0;" x1="45" x2="274" y1="351.3828" y2="351.3828"/><text fill="#000000" font-family="sans-serif" font-size="13" font-weight="bold" lengthAdjust="spacing" textLength="7" x="52" y="346.5264">9</text><text fill="#000000" font-family="sans-serif" font-size="13" lengthAdjust="spacing" textLength="93" x="63" y="346.5264">Start SMS MFA</text><polygon fill="#181818" points="794,377.7344,804,381.7344,794,385.7344,798,381.7344" style="stroke:#181818;stroke-width:1.0;"/><line style="stroke:#181818;stroke-width:1.0;" x1="280" x2="800" y1="381.7344" y2="381.7344"/><text fill="#000000" font-family="sans-serif" font-size="13" font-weight="bold" lengthAdjust="spacing" textLength="14" x="287" y="376.8779">10</text><text fill="#000000" font-family="sans-serif" font-size="13" lengthAdjust="spacing" textLength="61" x="305" y="376.8779">/introspect</text><polygon fill="#181818" points="291,408.0859,281,412.0859,291,416.0859,287,412.0859" style="stroke:#181818;stroke-width:1.0;"/><line style="stroke:#181818;stroke-width:1.0;stroke-dasharray:2.0,2.0;" x1="285" x2="805" y1="412.0859" y2="412.0859"/><text fill="#000000" font-family="sans-serif" font-size="13" font-weight="bold" lengthAdjust="spacing" textLength="14" x="297" y="407.2295">11</text><text fill="#000000" font-family="sans-serif" font-size="13" lengthAdjust="spacing" textLength="284" x="315" y="407.2295">returns continuation_token and challenge method</text><polygon fill="#181818" points="446,438.4375,456,442.4375,446,446.4375,450,442.4375" style="stroke:#181818;stroke-width:1.0;"/><line style="stroke:#181818;stroke-width:1.0;stroke-dasharray:2.0,2.0;" x1="280" x2="452" y1="442.4375" y2="442.4375"/><text fill="#000000" font-family="sans-serif" font-size="13" font-weight="bold" lengthAdjust="spacing" textLength="14" x="287" y="437.5811">12</text><text fill="#000000" font-family="sans-serif" font-size="13" lengthAdjust="spacing" textLength="136" x="305" y="437.5811">Get user phone number</text><polygon fill="#181818" points="906.5,468.7891,916.5,472.7891,906.5,476.7891,910.5,472.7891" style="stroke:#181818;stroke-width:1.0;"/><line style="stroke:#181818;stroke-width:1.0;stroke-dasharray:2.0,2.0;" x1="280" x2="912.5" y1="472.7891" y2="472.7891"/><text fill="#000000" font-family="sans-serif" font-size="13" font-weight="bold" lengthAdjust="spacing" textLength="14" x="287" y="467.9326">13</text><text fill="#000000" font-family="sans-serif" font-size="13" lengthAdjust="spacing" textLength="125" x="305" y="467.9326">Trigger risk evaluation</text><polygon fill="#181818" points="794,499.1406,804,503.1406,794,507.1406,798,503.1406" style="stroke:#181818;stroke-width:1.0;"/><line style="stroke:#181818;stroke-width:1.0;stroke-dasharray:2.0,2.0;" x1="537" x2="800" y1="503.1406" y2="503.1406"/><text fill="#000000" font-family="sans-serif" font-size="13" font-weight="bold" lengthAdjust="spacing" textLength="14" x="544" y="498.2842">14</text><text fill="#000000" font-family="sans-serif" font-size="13" lengthAdjust="spacing" textLength="227" x="562" y="498.2842">Risk decision (Allow, Block, Challenge)</text><path d="M10,518.1406 L71,518.1406 L71,526.4922 L61,536.4922 L10,536.4922 L10,518.1406 " fill="#EEEEEE" style="stroke:#000000;stroke-width:1.5;"/><rect fill="none" height="505.2969" style="stroke:#000000;stroke-width:1.5;" width="968.5" x="10" y="518.1406"/><text fill="#000000" font-family="sans-serif" font-size="13" font-weight="bold" lengthAdjust="spacing" textLength="16" x="25" y="532.6357">alt</text><text fill="#000000" font-family="sans-serif" font-size="11" font-weight="bold" lengthAdjust="spacing" textLength="116" x="86" y="531.5596">[Risk decision:Allow]</text><polygon fill="#181818" points="291,554.8438,281,558.8438,291,562.8438,287,558.8438" style="stroke:#181818;stroke-width:1.0;"/><line style="stroke:#181818;stroke-width:1.0;stroke-dasharray:2.0,2.0;" x1="285" x2="805" y1="558.8438" y2="558.8438"/><text fill="#000000" font-family="sans-serif" font-size="13" font-weight="bold" lengthAdjust="spacing" textLength="14" x="297" y="553.9873">15</text><text fill="#000000" font-family="sans-serif" font-size="13" lengthAdjust="spacing" textLength="145" x="315" y="553.9873">Return SMS OTP to user</text><polygon fill="#181818" points="794,585.1953,804,589.1953,794,593.1953,798,589.1953" style="stroke:#181818;stroke-width:1.0;"/><line style="stroke:#181818;stroke-width:1.0;" x1="280" x2="800" y1="589.1953" y2="589.1953"/><text fill="#000000" font-family="sans-serif" font-size="13" font-weight="bold" lengthAdjust="spacing" textLength="14" x="287" y="584.3389">16</text><text fill="#000000" font-family="sans-serif" font-size="13" lengthAdjust="spacing" textLength="154" x="305" y="584.3389">/token with OTP submitted</text><polygon fill="#181818" points="291,615.5469,281,619.5469,291,623.5469,287,619.5469" style="stroke:#181818;stroke-width:1.0;"/><line style="stroke:#181818;stroke-width:1.0;stroke-dasharray:2.0,2.0;" x1="285" x2="805" y1="619.5469" y2="619.5469"/><text fill="#000000" font-family="sans-serif" font-size="13" font-weight="bold" lengthAdjust="spacing" textLength="14" x="297" y="614.6904">17</text><text fill="#000000" font-family="sans-serif" font-size="13" lengthAdjust="spacing" textLength="173" x="315" y="614.6904">HTTP 200 sucess with tokens</text><polygon fill="#181818" points="56,645.8984,46,649.8984,56,653.8984,52,649.8984" style="stroke:#181818;stroke-width:1.0;"/><line style="stroke:#181818;stroke-width:1.0;" x1="50" x2="279" y1="649.8984" y2="649.8984"/><text fill="#000000" font-family="sans-serif" font-size="13" font-weight="bold" lengthAdjust="spacing" textLength="14" x="62" y="645.042">18</text><text fill="#000000" font-family="sans-serif" font-size="13" lengthAdjust="spacing" textLength="93" x="80" y="645.042">Auth Completed</text><line style="stroke:#000000;stroke-width:1.0;stroke-dasharray:2.0,2.0;" x1="10" x2="978.5" y1="658.8984" y2="658.8984"/><text fill="#000000" font-family="sans-serif" font-size="11" font-weight="bold" lengthAdjust="spacing" textLength="115" x="15" y="670.3174">[Risk decision:Block]</text><polygon fill="#181818" points="291,692.0859,281,696.0859,291,700.0859,287,696.0859" style="stroke:#181818;stroke-width:1.0;"/><line style="stroke:#181818;stroke-width:1.0;stroke-dasharray:2.0,2.0;" x1="285" x2="805" y1="696.0859" y2="696.0859"/><text fill="#000000" font-family="sans-serif" font-size="13" font-weight="bold" lengthAdjust="spacing" textLength="14" x="297" y="691.2295">19</text><text fill="#000000" font-family="sans-serif" font-size="13" lengthAdjust="spacing" textLength="89" x="315" y="691.2295">Sign-in blocked</text><polygon fill="#181818" points="56,722.4375,46,726.4375,56,730.4375,52,726.4375" style="stroke:#181818;stroke-width:1.0;"/><line style="stroke:#181818;stroke-width:1.0;" x1="50" x2="279" y1="726.4375" y2="726.4375"/><text fill="#000000" font-family="sans-serif" font-size="13" font-weight="bold" lengthAdjust="spacing" textLength="14" x="62" y="721.5811">20</text><text fill="#000000" font-family="sans-serif" font-size="13" lengthAdjust="spacing" textLength="74" x="80" y="721.5811">Sign-in failed</text><line style="stroke:#000000;stroke-width:1.0;stroke-dasharray:2.0,2.0;" x1="10" x2="978.5" y1="735.4375" y2="735.4375"/><text fill="#000000" font-family="sans-serif" font-size="11" font-weight="bold" lengthAdjust="spacing" textLength="143" x="15" y="746.8564">[Risk decision: Challenge]</text><polygon fill="#181818" points="291,768.625,281,772.625,291,776.625,287,772.625" style="stroke:#181818;stroke-width:1.0;"/><line style="stroke:#181818;stroke-width:1.0;stroke-dasharray:2.0,2.0;" x1="285" x2="917.5" y1="772.625" y2="772.625"/><text fill="#000000" font-family="sans-serif" font-size="13" font-weight="bold" lengthAdjust="spacing" textLength="14" x="297" y="767.7686">21</text><text fill="#000000" font-family="sans-serif" font-size="13" lengthAdjust="spacing" textLength="97" x="315" y="767.7686">Return challenge</text><polygon fill="#181818" points="268,798.9766,278,802.9766,268,806.9766,272,802.9766" style="stroke:#181818;stroke-width:1.0;"/><line style="stroke:#181818;stroke-width:1.0;stroke-dasharray:2.0,2.0;" x1="45" x2="274" y1="802.9766" y2="802.9766"/><text fill="#000000" font-family="sans-serif" font-size="13" font-weight="bold" lengthAdjust="spacing" textLength="14" x="52" y="798.1201">22</text><text fill="#000000" font-family="sans-serif" font-size="13" lengthAdjust="spacing" textLength="193" x="70" y="798.1201">User submits challenge response</text><polygon fill="#181818" points="525,829.3281,535,833.3281,525,837.3281,529,833.3281" style="stroke:#181818;stroke-width:1.0;"/><line style="stroke:#181818;stroke-width:1.0;stroke-dasharray:2.0,2.0;" x1="280" x2="531" y1="833.3281" y2="833.3281"/><text fill="#000000" font-family="sans-serif" font-size="13" font-weight="bold" lengthAdjust="spacing" textLength="14" x="287" y="828.4717">23</text><text fill="#000000" font-family="sans-serif" font-size="13" lengthAdjust="spacing" textLength="202" x="305" y="828.4717">/challenge with challenge response</text><polygon fill="#181818" points="906.5,859.6797,916.5,863.6797,906.5,867.6797,910.5,863.6797" style="stroke:#181818;stroke-width:1.0;"/><line style="stroke:#181818;stroke-width:1.0;stroke-dasharray:2.0,2.0;" x1="537" x2="912.5" y1="863.6797" y2="863.6797"/><text fill="#000000" font-family="sans-serif" font-size="13" font-weight="bold" lengthAdjust="spacing" textLength="14" x="544" y="858.8232">24</text><text fill="#000000" font-family="sans-serif" font-size="13" lengthAdjust="spacing" textLength="239" x="562" y="858.8232">Consult 3P FP Provider for risk evaluation</text><polygon fill="#181818" points="548,890.0313,538,894.0313,548,898.0313,544,894.0313" style="stroke:#181818;stroke-width:1.0;"/><line style="stroke:#181818;stroke-width:1.0;stroke-dasharray:2.0,2.0;" x1="542" x2="917.5" y1="894.0313" y2="894.0313"/><text fill="#000000" font-family="sans-serif" font-size="13" font-weight="bold" lengthAdjust="spacing" textLength="14" x="554" y="889.1748">25</text><text fill="#000000" font-family="sans-serif" font-size="13" lengthAdjust="spacing" textLength="158" x="572" y="889.1748">Return risk decision (Allow)</text><polygon fill="#181818" points="291,920.3828,281,924.3828,291,928.3828,287,924.3828" style="stroke:#181818;stroke-width:1.0;"/><line style="stroke:#181818;stroke-width:1.0;stroke-dasharray:2.0,2.0;" x1="285" x2="805" y1="924.3828" y2="924.3828"/><text fill="#000000" font-family="sans-serif" font-size="13" font-weight="bold" lengthAdjust="spacing" textLength="14" x="297" y="919.5264">26</text><text fill="#000000" font-family="sans-serif" font-size="13" lengthAdjust="spacing" textLength="145" x="315" y="919.5264">Return SMS OTP to user</text><polygon fill="#181818" points="794,950.7344,804,954.7344,794,958.7344,798,954.7344" style="stroke:#181818;stroke-width:1.0;"/><line style="stroke:#181818;stroke-width:1.0;" x1="280" x2="800" y1="954.7344" y2="954.7344"/><text fill="#000000" font-family="sans-serif" font-size="13" font-weight="bold" lengthAdjust="spacing" textLength="14" x="287" y="949.8779">27</text><text fill="#000000" font-family="sans-serif" font-size="13" lengthAdjust="spacing" textLength="154" x="305" y="949.8779">/token with OTP submitted</text><polygon fill="#181818" points="291,981.0859,281,985.0859,291,989.0859,287,985.0859" style="stroke:#181818;stroke-width:1.0;"/><line style="stroke:#181818;stroke-width:1.0;stroke-dasharray:2.0,2.0;" x1="285" x2="805" y1="985.0859" y2="985.0859"/><text fill="#000000" font-family="sans-serif" font-size="13" font-weight="bold" lengthAdjust="spacing" textLength="14" x="297" y="980.2295">28</text><text fill="#000000" font-family="sans-serif" font-size="13" lengthAdjust="spacing" textLength="173" x="315" y="980.2295">HTTP 200 sucess with tokens</text><polygon fill="#181818" points="56,1011.4375,46,1015.4375,56,1019.4375,52,1015.4375" style="stroke:#181818;stroke-width:1.0;"/><line style="stroke:#181818;stroke-width:1.0;" x1="50" x2="279" y1="1015.4375" y2="1015.4375"/><text fill="#000000" font-family="sans-serif" font-size="13" font-weight="bold" lengthAdjust="spacing" textLength="14" x="62" y="1010.5811">29</text><text fill="#000000" font-family="sans-serif" font-size="13" lengthAdjust="spacing" textLength="93" x="80" y="1010.5811">Auth Completed</text><!--SRC=[tLInRjim4Dtr5JSsG8m4pUQXW6h4IGQtHkoYOq1BP-jWYYJ8auFswqkHbX8gSXqKdUB98D-zz-xkKQ9XhPfwWpPZOedmJJ0T479ZOBLOmMAUmpDn1JTBM5fze18j25N2ptoU6M6P2Z92CSmaeUBaA59vfkHquUwiC5M-V4YEXtmBAgnsUiktYgr8hcxCt7HUibu49fCloTKK7XGn2Kc_iRK_V-aWYsv3IKyGyO8H7EtKXDI0EtK4Ku0h2WACsU0kuVN8H-J6AYYqObADlz3gYVKU4uaHXQkY4bAYsfrLi471ZKY4RVKyJ_pBu3dLQEtV5KDWwgq0KepMDePF37p5VgrTpiwvycJ-n631_siOK2DNkXpkkG-efxf3XiRvp9jAAuJZKpaTEb-ojhJR-N-Mt1xm86GqaFc4Z-VeiGMMM93pCFYKIwcVB-6hrCN-4cQTsOjCI4wnqm3DmF_-Df4-V-sWlw-Nm3hq50hV4uMuqBRIDPkQcB4yA-gBxzU-ulFrjQygqBd84WZTM-aOa2daZGVDT6qajZ8e7GwQ3eDvHzEh-8fXq-AFZaSbE-1Ma1oNVDb2O4aMVkgj9nNZyV_H1YkErBrAfKLdj78uTEoBsmoz_Yp4cPuexG8toEVC0neVfVIJ25lzDhAZpKOFnpRjI7OlFdOYLVa7]--></g></svg>